<mxfile host="app.diagrams.net" agent="Mozilla/5.0 (Macintosh; Intel Mac OS X 10_15_7) AppleWebKit/605.1.15 (KHTML, like Gecko) Version/18.1 Safari/605.1.15" version="28.0.3">
  <diagram name="第 1 页" id="LuuQsLHYepFLeTQ4PckM">
    <mxGraphModel dx="2767" dy="2397" grid="1" gridSize="10" guides="1" tooltips="1" connect="1" arrows="1" fold="1" page="1" pageScale="1" pageWidth="827" pageHeight="1169" math="1" shadow="0">
      <root>
        <mxCell id="0" />
        <mxCell id="1" parent="0" />
        <mxCell id="QabODWYc-xTbxn0SH4q3-1" value="" style="group;rotation=-15;" parent="1" vertex="1" connectable="0">
          <mxGeometry x="749.0045083733207" y="810.9543534254599" width="160.70643446337112" height="122.05041326994206" as="geometry" />
        </mxCell>
        <mxCell id="QabODWYc-xTbxn0SH4q3-2" style="vsdxID=272;rotation=-314;fillColor=#eeeeee;shape=stencil(lZPRcoMgEEW/hkeZZdERntPkP5gElamVDJrG/H2xUBQzk2ne2OWwFy67hB/GTl01QRgnZz/13VymjvAPgmiGTjsz+RXhR8IPjXW6dfY2XEJ8VQu5rL7s91JhDueAAi6HEB4hwQB+41OgzzcXcJZ4FvmYkZIyGVIzRigSMZSCchEJnhMxlDWt6peyuWYpqRS5JvPXYLkuA4os1y1LWuXSQKXcKit39rtuTlXrcDFw0SCskmURqqpUdFcT5kLNZiycndRk7JA9pleu1YXXK5petdnWeNf6ukmzV94IoELm/mxfjvm/Jne2HvI9899/WU+w57/G1CB/djzwuWf4SolcfdeKvRneaNz3aL9YJ6QxfR8GbLu/nyifCtPIjz8=);strokeColor=none;strokeWidth=0;spacingTop=-3;spacingBottom=-3;spacingLeft=-3;spacingRight=-3;points=[];labelBackgroundColor=none;rounded=0;html=1;whiteSpace=wrap;container=0;" parent="QabODWYc-xTbxn0SH4q3-1" vertex="1">
          <mxGeometry x="77" y="19" width="57.5" height="46" as="geometry" />
        </mxCell>
        <mxCell id="QabODWYc-xTbxn0SH4q3-3" value="" style="shape=image;verticalLabelPosition=bottom;labelBackgroundColor=default;verticalAlign=top;aspect=fixed;imageAspect=0;editableCssRules=.*;image=data:image/svg+xml,PHN2ZyB4bWxucz0iaHR0cDovL3d3dy53My5vcmcvMjAwMC9zdmciIHZlcnNpb249IjEuMSIgdmlld0JveD0iMCAwIDEwMjQgMTAyNCIgaGVpZ2h0PSIyMDAiIHdpZHRoPSIyMDAiIGNsYXNzPSJpY29uIj48cGF0aCBmaWxsPSIjOThBMUI1IiBkPSJNMCAwaDE3MC42NjY2Njd2MTcwLjY2NjY2N0gwVjB6IG00MjYuNjY2NjY3IDBoMTcwLjY2NjY2NnYxNzAuNjY2NjY3SDQyNi42NjY2NjdWMHogbTQyNi42NjY2NjYgMGgxNzAuNjY2NjY3djE3MC42NjY2NjdoLTE3MC42NjY2NjdWMHpNMCA0MjYuNjY2NjY3aDE3MC42NjY2Njd2MTcwLjY2NjY2NkgwVjQyNi42NjY2Njd6IG00MjYuNjY2NjY3IDBoMTcwLjY2NjY2NnYxNzAuNjY2NjY2SDQyNi42NjY2NjdWNDI2LjY2NjY2N3ogbTQyNi42NjY2NjYgMGgxNzAuNjY2NjY3djE3MC42NjY2NjZoLTE3MC42NjY2NjdWNDI2LjY2NjY2N3pNMCA4NTMuMzMzMzMzaDE3MC42NjY2Njd2MTcwLjY2NjY2N0gwdi0xNzAuNjY2NjY3eiBtNDI2LjY2NjY2NyAwaDE3MC42NjY2NjZ2MTcwLjY2NjY2N0g0MjYuNjY2NjY3di0xNzAuNjY2NjY3eiBtNDI2LjY2NjY2NiAwaDE3MC42NjY2Njd2MTcwLjY2NjY2N2gtMTcwLjY2NjY2N3YtMTcwLjY2NjY2N3oiLz48L3N2Zz4=;rotation=45;container=0;" parent="QabODWYc-xTbxn0SH4q3-1" vertex="1">
          <mxGeometry x="106" y="33.71" width="25.29" height="25.29" as="geometry" />
        </mxCell>
        <mxCell id="QabODWYc-xTbxn0SH4q3-4" value="" style="shape=image;verticalLabelPosition=bottom;labelBackgroundColor=default;verticalAlign=top;aspect=fixed;imageAspect=0;editableCssRules=.*;image=data:image/svg+xml,PHN2ZyB4bWxucz0iaHR0cDovL3d3dy53My5vcmcvMjAwMC9zdmciIHZlcnNpb249IjEuMSIgdmlld0JveD0iMCAwIDEwMjQgMTAyNCIgaGVpZ2h0PSIyMDAiIHdpZHRoPSIyMDAiIGNsYXNzPSJpY29uIj48cGF0aCBmaWxsPSIjOThBMUI1IiBkPSJNMCAwaDE3MC42NjY2Njd2MTcwLjY2NjY2N0gwVjB6IG00MjYuNjY2NjY3IDBoMTcwLjY2NjY2NnYxNzAuNjY2NjY3SDQyNi42NjY2NjdWMHogbTQyNi42NjY2NjYgMGgxNzAuNjY2NjY3djE3MC42NjY2NjdoLTE3MC42NjY2NjdWMHpNMCA0MjYuNjY2NjY3aDE3MC42NjY2Njd2MTcwLjY2NjY2NkgwVjQyNi42NjY2Njd6IG00MjYuNjY2NjY3IDBoMTcwLjY2NjY2NnYxNzAuNjY2NjY2SDQyNi42NjY2NjdWNDI2LjY2NjY2N3ogbTQyNi42NjY2NjYgMGgxNzAuNjY2NjY3djE3MC42NjY2NjZoLTE3MC42NjY2NjdWNDI2LjY2NjY2N3pNMCA4NTMuMzMzMzMzaDE3MC42NjY2Njd2MTcwLjY2NjY2N0gwdi0xNzAuNjY2NjY3eiBtNDI2LjY2NjY2NyAwaDE3MC42NjY2NjZ2MTcwLjY2NjY2N0g0MjYuNjY2NjY3di0xNzAuNjY2NjY3eiBtNDI2LjY2NjY2NiAwaDE3MC42NjY2Njd2MTcwLjY2NjY2N2gtMTcwLjY2NjY2N3YtMTcwLjY2NjY2N3oiLz48L3N2Zz4=;rotation=45;container=0;" parent="QabODWYc-xTbxn0SH4q3-1" vertex="1">
          <mxGeometry x="84" y="13" width="25.29" height="25.29" as="geometry" />
        </mxCell>
        <mxCell id="QabODWYc-xTbxn0SH4q3-5" style="vsdxID=273;rotation=-314;fillColor=#eeeeee;shape=stencil(nZBRDoQgDERP03+WHsHFe5iISyOCQdT19kIaIxq//Jtp3zTpAFaTaUYNUkwx+F6v1EYD+AUpyRkdKCYFqACrzgf9C352LfuxyWRWg1/yhT/nRE5IsZWuZtCSK8CPeI0e/hF+jV7AJM4PO7KWCyr390bSiNtEtQM=);strokeWidth=0;spacingTop=-3;spacingBottom=-3;spacingLeft=-3;spacingRight=-3;points=[];labelBackgroundColor=none;rounded=0;html=1;whiteSpace=wrap;strokeColor=none;fixDash=0;container=0;dropTarget=0;collapsible=0;part=0;metaEdit=0;backgroundOutline=0;autosize=0;fixedWidth=0;resizeWidth=0;resizeHeight=0;treeFolding=0;treeMoving=0;enumerate=0;" parent="QabODWYc-xTbxn0SH4q3-1" vertex="1">
          <mxGeometry x="31" y="45" width="58" height="78" as="geometry" />
        </mxCell>
        <mxCell id="QabODWYc-xTbxn0SH4q3-6" value="" style="shape=dataStorage;whiteSpace=wrap;html=1;fixedSize=1;rotation=91;size=13.39482074393743;strokeColor=none;container=0;" parent="QabODWYc-xTbxn0SH4q3-1" vertex="1">
          <mxGeometry x="84" y="-11" width="35.21" height="58.38" as="geometry" />
        </mxCell>
        <mxCell id="QabODWYc-xTbxn0SH4q3-7" value="" style="shape=dataStorage;whiteSpace=wrap;html=1;fixedSize=1;rotation=-170;size=10.19517723437616;strokeColor=none;container=0;" parent="QabODWYc-xTbxn0SH4q3-1" vertex="1">
          <mxGeometry x="116" y="28" width="36.84" height="52" as="geometry" />
        </mxCell>
        <mxCell id="QabODWYc-xTbxn0SH4q3-8" value="" style="shape=image;verticalLabelPosition=bottom;labelBackgroundColor=default;verticalAlign=top;aspect=fixed;imageAspect=0;editableCssRules=.*;image=data:image/svg+xml,PHN2ZyB4bWxucz0iaHR0cDovL3d3dy53My5vcmcvMjAwMC9zdmciIHZlcnNpb249IjEuMSIgdmlld0JveD0iMCAwIDEwMjQgMTAyNCIgaGVpZ2h0PSIyMDAiIHdpZHRoPSIyMDAiIGNsYXNzPSJpY29uIj48cGF0aCBmaWxsPSIjOThBMUI1IiBkPSJNMCAwaDE3MC42NjY2Njd2MTcwLjY2NjY2N0gwVjB6IG00MjYuNjY2NjY3IDBoMTcwLjY2NjY2NnYxNzAuNjY2NjY3SDQyNi42NjY2NjdWMHogbTQyNi42NjY2NjYgMGgxNzAuNjY2NjY3djE3MC42NjY2NjdoLTE3MC42NjY2NjdWMHpNMCA0MjYuNjY2NjY3aDE3MC42NjY2Njd2MTcwLjY2NjY2NkgwVjQyNi42NjY2Njd6IG00MjYuNjY2NjY3IDBoMTcwLjY2NjY2NnYxNzAuNjY2NjY2SDQyNi42NjY2NjdWNDI2LjY2NjY2N3ogbTQyNi42NjY2NjYgMGgxNzAuNjY2NjY3djE3MC42NjY2NjZoLTE3MC42NjY2NjdWNDI2LjY2NjY2N3pNMCA4NTMuMzMzMzMzaDE3MC42NjY2Njd2MTcwLjY2NjY2N0gwdi0xNzAuNjY2NjY3eiBtNDI2LjY2NjY2NyAwaDE3MC42NjY2NjZ2MTcwLjY2NjY2N0g0MjYuNjY2NjY3di0xNzAuNjY2NjY3eiBtNDI2LjY2NjY2NiAwaDE3MC42NjY2Njd2MTcwLjY2NjY2N2gtMTcwLjY2NjY2N3YtMTcwLjY2NjY2N3oiLz48L3N2Zz4=;rotation=45;container=0;" parent="QabODWYc-xTbxn0SH4q3-1" vertex="1">
          <mxGeometry x="20" y="78" width="25.29" height="25.29" as="geometry" />
        </mxCell>
        <mxCell id="QabODWYc-xTbxn0SH4q3-9" value="" style="shape=image;verticalLabelPosition=bottom;labelBackgroundColor=default;verticalAlign=top;aspect=fixed;imageAspect=0;editableCssRules=.*;image=data:image/svg+xml,PHN2ZyB4bWxucz0iaHR0cDovL3d3dy53My5vcmcvMjAwMC9zdmciIHZlcnNpb249IjEuMSIgdmlld0JveD0iMCAwIDEwMjQgMTAyNCIgaGVpZ2h0PSIyMDAiIHdpZHRoPSIyMDAiIGNsYXNzPSJpY29uIj48cGF0aCBmaWxsPSIjOThBMUI1IiBkPSJNMCAwaDE3MC42NjY2Njd2MTcwLjY2NjY2N0gwVjB6IG00MjYuNjY2NjY3IDBoMTcwLjY2NjY2NnYxNzAuNjY2NjY3SDQyNi42NjY2NjdWMHogbTQyNi42NjY2NjYgMGgxNzAuNjY2NjY3djE3MC42NjY2NjdoLTE3MC42NjY2NjdWMHpNMCA0MjYuNjY2NjY3aDE3MC42NjY2Njd2MTcwLjY2NjY2NkgwVjQyNi42NjY2Njd6IG00MjYuNjY2NjY3IDBoMTcwLjY2NjY2NnYxNzAuNjY2NjY2SDQyNi42NjY2NjdWNDI2LjY2NjY2N3ogbTQyNi42NjY2NjYgMGgxNzAuNjY2NjY3djE3MC42NjY2NjZoLTE3MC42NjY2NjdWNDI2LjY2NjY2N3pNMCA4NTMuMzMzMzMzaDE3MC42NjY2Njd2MTcwLjY2NjY2N0gwdi0xNzAuNjY2NjY3eiBtNDI2LjY2NjY2NyAwaDE3MC42NjY2NjZ2MTcwLjY2NjY2N0g0MjYuNjY2NjY3di0xNzAuNjY2NjY3eiBtNDI2LjY2NjY2NiAwaDE3MC42NjY2Njd2MTcwLjY2NjY2N2gtMTcwLjY2NjY2N3YtMTcwLjY2NjY2N3oiLz48L3N2Zz4=;rotation=45;container=0;" parent="QabODWYc-xTbxn0SH4q3-1" vertex="1">
          <mxGeometry x="39" y="100" width="25.29" height="25.29" as="geometry" />
        </mxCell>
        <mxCell id="QabODWYc-xTbxn0SH4q3-10" value="" style="shape=image;verticalLabelPosition=bottom;labelBackgroundColor=default;verticalAlign=top;aspect=fixed;imageAspect=0;editableCssRules=.*;image=data:image/svg+xml,PHN2ZyB4bWxucz0iaHR0cDovL3d3dy53My5vcmcvMjAwMC9zdmciIHZlcnNpb249IjEuMSIgdmlld0JveD0iMCAwIDEwMjQgMTAyNCIgaGVpZ2h0PSIyMDAiIHdpZHRoPSIyMDAiIGNsYXNzPSJpY29uIj48cGF0aCBmaWxsPSIjOThBMUI1IiBkPSJNMCAwaDE3MC42NjY2Njd2MTcwLjY2NjY2N0gwVjB6IG00MjYuNjY2NjY3IDBoMTcwLjY2NjY2NnYxNzAuNjY2NjY3SDQyNi42NjY2NjdWMHogbTQyNi42NjY2NjYgMGgxNzAuNjY2NjY3djE3MC42NjY2NjdoLTE3MC42NjY2NjdWMHpNMCA0MjYuNjY2NjY3aDE3MC42NjY2Njd2MTcwLjY2NjY2NkgwVjQyNi42NjY2Njd6IG00MjYuNjY2NjY3IDBoMTcwLjY2NjY2NnYxNzAuNjY2NjY2SDQyNi42NjY2NjdWNDI2LjY2NjY2N3ogbTQyNi42NjY2NjYgMGgxNzAuNjY2NjY3djE3MC42NjY2NjZoLTE3MC42NjY2NjdWNDI2LjY2NjY2N3pNMCA4NTMuMzMzMzMzaDE3MC42NjY2Njd2MTcwLjY2NjY2N0gwdi0xNzAuNjY2NjY3eiBtNDI2LjY2NjY2NyAwaDE3MC42NjY2NjZ2MTcwLjY2NjY2N0g0MjYuNjY2NjY3di0xNzAuNjY2NjY3eiBtNDI2LjY2NjY2NiAwaDE3MC42NjY2Njd2MTcwLjY2NjY2N2gtMTcwLjY2NjY2N3YtMTcwLjY2NjY2N3oiLz48L3N2Zz4=;rotation=45;container=0;" parent="QabODWYc-xTbxn0SH4q3-1" vertex="1">
          <mxGeometry x="65" y="79" width="25.29" height="25.29" as="geometry" />
        </mxCell>
        <mxCell id="QabODWYc-xTbxn0SH4q3-11" value="" style="shape=image;verticalLabelPosition=bottom;labelBackgroundColor=default;verticalAlign=top;aspect=fixed;imageAspect=0;editableCssRules=.*;image=data:image/svg+xml,PHN2ZyB4bWxucz0iaHR0cDovL3d3dy53My5vcmcvMjAwMC9zdmciIHZlcnNpb249IjEuMSIgdmlld0JveD0iMCAwIDEwMjQgMTAyNCIgaGVpZ2h0PSIyMDAiIHdpZHRoPSIyMDAiIGNsYXNzPSJpY29uIj48cGF0aCBmaWxsPSIjOThBMUI1IiBkPSJNMCAwaDE3MC42NjY2Njd2MTcwLjY2NjY2N0gwVjB6IG00MjYuNjY2NjY3IDBoMTcwLjY2NjY2NnYxNzAuNjY2NjY3SDQyNi42NjY2NjdWMHogbTQyNi42NjY2NjYgMGgxNzAuNjY2NjY3djE3MC42NjY2NjdoLTE3MC42NjY2NjdWMHpNMCA0MjYuNjY2NjY3aDE3MC42NjY2Njd2MTcwLjY2NjY2NkgwVjQyNi42NjY2Njd6IG00MjYuNjY2NjY3IDBoMTcwLjY2NjY2NnYxNzAuNjY2NjY2SDQyNi42NjY2NjdWNDI2LjY2NjY2N3ogbTQyNi42NjY2NjYgMGgxNzAuNjY2NjY3djE3MC42NjY2NjZoLTE3MC42NjY2NjdWNDI2LjY2NjY2N3pNMCA4NTMuMzMzMzMzaDE3MC42NjY2Njd2MTcwLjY2NjY2N0gwdi0xNzAuNjY2NjY3eiBtNDI2LjY2NjY2NyAwaDE3MC42NjY2NjZ2MTcwLjY2NjY2N0g0MjYuNjY2NjY3di0xNzAuNjY2NjY3eiBtNDI2LjY2NjY2NiAwaDE3MC42NjY2Njd2MTcwLjY2NjY2N2gtMTcwLjY2NjY2N3YtMTcwLjY2NjY2N3oiLz48L3N2Zz4=;rotation=45;container=0;" parent="QabODWYc-xTbxn0SH4q3-1" vertex="1">
          <mxGeometry x="42" y="57" width="25.29" height="25.29" as="geometry" />
        </mxCell>
        <mxCell id="QabODWYc-xTbxn0SH4q3-12" value="" style="shape=image;verticalLabelPosition=bottom;labelBackgroundColor=default;verticalAlign=top;aspect=fixed;imageAspect=0;editableCssRules=.*;image=data:image/svg+xml,PHN2ZyB4bWxucz0iaHR0cDovL3d3dy53My5vcmcvMjAwMC9zdmciIHZlcnNpb249IjEuMSIgdmlld0JveD0iMCAwIDEwMjQgMTAyNCIgaGVpZ2h0PSIyMDAiIHdpZHRoPSIyMDAiIGNsYXNzPSJpY29uIj48cGF0aCBmaWxsPSIjOThBMUI1IiBkPSJNMCAwaDE3MC42NjY2Njd2MTcwLjY2NjY2N0gwVjB6IG00MjYuNjY2NjY3IDBoMTcwLjY2NjY2NnYxNzAuNjY2NjY3SDQyNi42NjY2NjdWMHogbTQyNi42NjY2NjYgMGgxNzAuNjY2NjY3djE3MC42NjY2NjdoLTE3MC42NjY2NjdWMHpNMCA0MjYuNjY2NjY3aDE3MC42NjY2Njd2MTcwLjY2NjY2NkgwVjQyNi42NjY2Njd6IG00MjYuNjY2NjY3IDBoMTcwLjY2NjY2NnYxNzAuNjY2NjY2SDQyNi42NjY2NjdWNDI2LjY2NjY2N3ogbTQyNi42NjY2NjYgMGgxNzAuNjY2NjY3djE3MC42NjY2NjZoLTE3MC42NjY2NjdWNDI2LjY2NjY2N3pNMCA4NTMuMzMzMzMzaDE3MC42NjY2Njd2MTcwLjY2NjY2N0gwdi0xNzAuNjY2NjY3eiBtNDI2LjY2NjY2NyAwaDE3MC42NjY2NjZ2MTcwLjY2NjY2N0g0MjYuNjY2NjY3di0xNzAuNjY2NjY3eiBtNDI2LjY2NjY2NiAwaDE3MC42NjY2Njd2MTcwLjY2NjY2N2gtMTcwLjY2NjY2N3YtMTcwLjY2NjY2N3oiLz48L3N2Zz4=;rotation=45;container=0;" parent="QabODWYc-xTbxn0SH4q3-1" vertex="1">
          <mxGeometry x="64" y="37" width="25.29" height="25.29" as="geometry" />
        </mxCell>
        <mxCell id="QabODWYc-xTbxn0SH4q3-13" value="" style="shape=image;verticalLabelPosition=bottom;labelBackgroundColor=default;verticalAlign=top;aspect=fixed;imageAspect=0;editableCssRules=.*;image=data:image/svg+xml,PHN2ZyB4bWxucz0iaHR0cDovL3d3dy53My5vcmcvMjAwMC9zdmciIHZlcnNpb249IjEuMSIgdmlld0JveD0iMCAwIDEwMjQgMTAyNCIgaGVpZ2h0PSIyMDAiIHdpZHRoPSIyMDAiIGNsYXNzPSJpY29uIj48cGF0aCBmaWxsPSIjOThBMUI1IiBkPSJNMCAwaDE3MC42NjY2Njd2MTcwLjY2NjY2N0gwVjB6IG00MjYuNjY2NjY3IDBoMTcwLjY2NjY2NnYxNzAuNjY2NjY3SDQyNi42NjY2NjdWMHogbTQyNi42NjY2NjYgMGgxNzAuNjY2NjY3djE3MC42NjY2NjdoLTE3MC42NjY2NjdWMHpNMCA0MjYuNjY2NjY3aDE3MC42NjY2Njd2MTcwLjY2NjY2NkgwVjQyNi42NjY2Njd6IG00MjYuNjY2NjY3IDBoMTcwLjY2NjY2NnYxNzAuNjY2NjY2SDQyNi42NjY2NjdWNDI2LjY2NjY2N3ogbTQyNi42NjY2NjYgMGgxNzAuNjY2NjY3djE3MC42NjY2NjZoLTE3MC42NjY2NjdWNDI2LjY2NjY2N3pNMCA4NTMuMzMzMzMzaDE3MC42NjY2Njd2MTcwLjY2NjY2N0gwdi0xNzAuNjY2NjY3eiBtNDI2LjY2NjY2NyAwaDE3MC42NjY2NjZ2MTcwLjY2NjY2N0g0MjYuNjY2NjY3di0xNzAuNjY2NjY3eiBtNDI2LjY2NjY2NiAwaDE3MC42NjY2Njd2MTcwLjY2NjY2N2gtMTcwLjY2NjY2N3YtMTcwLjY2NjY2N3oiLz48L3N2Zz4=;rotation=45;container=0;" parent="QabODWYc-xTbxn0SH4q3-1" vertex="1">
          <mxGeometry x="86" y="57" width="25.29" height="25.29" as="geometry" />
        </mxCell>
        <mxCell id="QabODWYc-xTbxn0SH4q3-14" style="vsdxID=324;rotation=45;fillColor=#647687;shape=stencil(tZTbUsMgEIafhsswHJPmWut7MC1tGWPSIamNby+RhWSjrTqjd7B8sP8eWCIf+pM5WyJYP/ju2V7dfjgR+UiEcO3JejeEFZFbIh8OnbdH313afdyfzUROq5fudXphjPdqTXU13RLsLVrYx+4pwruLjzTP+KYEHEyMljxaRgFQSbkGCEyccvAyygwpBZBMUFktnRu/C6celGrKgfegNJhUehUerWmNgglIJQEpzOj6wneDGVzXLoNljfFHWwR/xaExR3TUX609L8z8Xno4Yzg5SlEtcXZmBgxlTdkqOTMj18xPPW/KnK9cl4rqzaou6VouSxBcY9+JAc+Naxf9E0rAUcZX9FqnoEpiobMEgRKfJC4DkZi4lRwskZGvO+JGl4nPXVZr1GUy1zTFTEX6Av/QZFggD79EYoV6ritAKgtCn/qv5N3ph2/mya/gsJjH1sE1TZx6y/P1mAumOCLl9h0=);strokeColor=#314354;strokeWidth=0;spacingTop=-3;spacingBottom=-3;spacingLeft=-3;spacingRight=-3;points=[];labelBackgroundColor=none;rounded=0;html=1;whiteSpace=wrap;container=0;fontColor=#ffffff;" parent="QabODWYc-xTbxn0SH4q3-1" vertex="1">
          <mxGeometry x="54" y="66" width="21" height="30" as="geometry" />
        </mxCell>
        <mxCell id="QabODWYc-xTbxn0SH4q3-15" style="vsdxID=276;rotation=-314;fillColor=#647687;shape=stencil(vVFBDgIhDHwNRxKE+IJ1/Ufjll0iLpuCLv5eSDWKevLgbaYznTatMF2cYEGhVUwUjri6IU3C7ITWbp6QXCpImF6YzgbCkcJ5HpgvUJ0VncKlJmTuU7VDqyuzLdM9O4EORaLcaIpa7yNoo75GqSwhuygpJEguzM1UDzSiLGOk9TDec1iKK+LyUf5lsf+tVcDzzNZ5z1961d/fUkr8UtPfAA==);strokeColor=#314354;points=[[0.5,0,0],[0.5,0.5,0],[0.5,0.5,0],[0.5,0.5,0],[1,0.5,0]];labelBackgroundColor=none;rounded=0;html=1;whiteSpace=wrap;fontColor=#ffffff;container=0;" parent="QabODWYc-xTbxn0SH4q3-1" vertex="1">
          <mxGeometry x="28" y="121" width="19" height="8" as="geometry" />
        </mxCell>
        <mxCell id="QabODWYc-xTbxn0SH4q3-16" style="vsdxID=277;rotation=-314;fillColor=#647687;shape=stencil(vVFBDgIhDHwNRxKE+IJ1/Ufjll0iLpuCLv5eSDWKevLgbaYznTatMF2cYEGhVUwUjri6IU3C7ITWbp6QXCpImF6YzgbCkcJ5HpgvUJ0VncKlJmTuU7VDqyuzLdM9O4EORaLcaIpa7yNoo75GqSwhuygpJEguzM1UDzSiLGOk9TDec1iKK+LyUf5lsf+tVcDzzNZ5z1961d/fUkr8UtPfAA==);strokeColor=#314354;points=[[0.5,0,0],[0.5,0.5,0],[0.5,0.5,0],[0.5,0.5,0],[1,0.5,0]];labelBackgroundColor=none;rounded=0;html=1;whiteSpace=wrap;fontColor=#ffffff;container=0;" parent="QabODWYc-xTbxn0SH4q3-1" vertex="1">
          <mxGeometry x="8" y="102" width="19" height="8" as="geometry" />
        </mxCell>
        <mxCell id="QabODWYc-xTbxn0SH4q3-17" style="vsdxID=278;rotation=-314;fillColor=#647687;shape=stencil(vVHLDsIgEPwajiQU4hfU+h8bu7RELM2CFv9eyMZYjCcP3mZ2Zh/ZEaaPM6wotIqJwgU3N6ZZmKPQ2i0zkksFCTMI09tAOFG4LSPzFaqzomu41wmZ+1Tt0OrB7MD0xE6gc5EoN5qi1vsa1Kmvo1SWkF2UFBIkF5ZmqweaUJY10nqYGiluiOuu3P182P/OKuD9Zuu855T2+mcspcSRmuEJ);strokeColor=#314354;points=[[0.5,0,0],[0.5,0.5,0],[0.5,0.5,0],[0.5,0.5,0],[1,0.5,0],[0.15,0.85,0],[0.85,0.85,0],[0.85,0.15,0],[0.15,0.15,0]];labelBackgroundColor=none;rounded=0;html=1;whiteSpace=wrap;fontColor=#ffffff;container=0;" parent="QabODWYc-xTbxn0SH4q3-1" vertex="1">
          <mxGeometry x="23" y="110" width="10" height="10" as="geometry" />
        </mxCell>
        <mxCell id="QabODWYc-xTbxn0SH4q3-18" value="" style="group;rotation=80;" parent="1" vertex="1" connectable="0">
          <mxGeometry x="704.0045083733207" y="465.00435342546007" width="160.70643446337112" height="185.0456465745399" as="geometry" />
        </mxCell>
        <mxCell id="QabODWYc-xTbxn0SH4q3-19" style="vsdxID=272;rotation=-219;fillColor=#eeeeee;shape=stencil(lZPRcoMgEEW/hkeZZdERntPkP5gElamVDJrG/H2xUBQzk2ne2OWwFy67hB/GTl01QRgnZz/13VymjvAPgmiGTjsz+RXhR8IPjXW6dfY2XEJ8VQu5rL7s91JhDueAAi6HEB4hwQB+41OgzzcXcJZ4FvmYkZIyGVIzRigSMZSCchEJnhMxlDWt6peyuWYpqRS5JvPXYLkuA4os1y1LWuXSQKXcKit39rtuTlXrcDFw0SCskmURqqpUdFcT5kLNZiycndRk7JA9pleu1YXXK5petdnWeNf6ukmzV94IoELm/mxfjvm/Jne2HvI9899/WU+w57/G1CB/djzwuWf4SolcfdeKvRneaNz3aL9YJ6QxfR8GbLu/nyifCtPIjz8=);strokeColor=none;strokeWidth=0;spacingTop=-3;spacingBottom=-3;spacingLeft=-3;spacingRight=-3;points=[];labelBackgroundColor=none;rounded=0;html=1;whiteSpace=wrap;container=0;" parent="QabODWYc-xTbxn0SH4q3-18" vertex="1">
          <mxGeometry x="69" y="65" width="57.5" height="46" as="geometry" />
        </mxCell>
        <mxCell id="QabODWYc-xTbxn0SH4q3-20" value="" style="shape=image;verticalLabelPosition=bottom;labelBackgroundColor=default;verticalAlign=top;aspect=fixed;imageAspect=0;editableCssRules=.*;image=data:image/svg+xml,PHN2ZyB4bWxucz0iaHR0cDovL3d3dy53My5vcmcvMjAwMC9zdmciIHZlcnNpb249IjEuMSIgdmlld0JveD0iMCAwIDEwMjQgMTAyNCIgaGVpZ2h0PSIyMDAiIHdpZHRoPSIyMDAiIGNsYXNzPSJpY29uIj48cGF0aCBmaWxsPSIjOThBMUI1IiBkPSJNMCAwaDE3MC42NjY2Njd2MTcwLjY2NjY2N0gwVjB6IG00MjYuNjY2NjY3IDBoMTcwLjY2NjY2NnYxNzAuNjY2NjY3SDQyNi42NjY2NjdWMHogbTQyNi42NjY2NjYgMGgxNzAuNjY2NjY3djE3MC42NjY2NjdoLTE3MC42NjY2NjdWMHpNMCA0MjYuNjY2NjY3aDE3MC42NjY2Njd2MTcwLjY2NjY2NkgwVjQyNi42NjY2Njd6IG00MjYuNjY2NjY3IDBoMTcwLjY2NjY2NnYxNzAuNjY2NjY2SDQyNi42NjY2NjdWNDI2LjY2NjY2N3ogbTQyNi42NjY2NjYgMGgxNzAuNjY2NjY3djE3MC42NjY2NjZoLTE3MC42NjY2NjdWNDI2LjY2NjY2N3pNMCA4NTMuMzMzMzMzaDE3MC42NjY2Njd2MTcwLjY2NjY2N0gwdi0xNzAuNjY2NjY3eiBtNDI2LjY2NjY2NyAwaDE3MC42NjY2NjZ2MTcwLjY2NjY2N0g0MjYuNjY2NjY3di0xNzAuNjY2NjY3eiBtNDI2LjY2NjY2NiAwaDE3MC42NjY2Njd2MTcwLjY2NjY2N2gtMTcwLjY2NjY2N3YtMTcwLjY2NjY2N3oiLz48L3N2Zz4=;rotation=140;container=0;" parent="QabODWYc-xTbxn0SH4q3-18" vertex="1">
          <mxGeometry x="78" y="89" width="25.29" height="25.29" as="geometry" />
        </mxCell>
        <mxCell id="QabODWYc-xTbxn0SH4q3-21" value="" style="shape=image;verticalLabelPosition=bottom;labelBackgroundColor=default;verticalAlign=top;aspect=fixed;imageAspect=0;editableCssRules=.*;image=data:image/svg+xml,PHN2ZyB4bWxucz0iaHR0cDovL3d3dy53My5vcmcvMjAwMC9zdmciIHZlcnNpb249IjEuMSIgdmlld0JveD0iMCAwIDEwMjQgMTAyNCIgaGVpZ2h0PSIyMDAiIHdpZHRoPSIyMDAiIGNsYXNzPSJpY29uIj48cGF0aCBmaWxsPSIjOThBMUI1IiBkPSJNMCAwaDE3MC42NjY2Njd2MTcwLjY2NjY2N0gwVjB6IG00MjYuNjY2NjY3IDBoMTcwLjY2NjY2NnYxNzAuNjY2NjY3SDQyNi42NjY2NjdWMHogbTQyNi42NjY2NjYgMGgxNzAuNjY2NjY3djE3MC42NjY2NjdoLTE3MC42NjY2NjdWMHpNMCA0MjYuNjY2NjY3aDE3MC42NjY2Njd2MTcwLjY2NjY2NkgwVjQyNi42NjY2Njd6IG00MjYuNjY2NjY3IDBoMTcwLjY2NjY2NnYxNzAuNjY2NjY2SDQyNi42NjY2NjdWNDI2LjY2NjY2N3ogbTQyNi42NjY2NjYgMGgxNzAuNjY2NjY3djE3MC42NjY2NjZoLTE3MC42NjY2NjdWNDI2LjY2NjY2N3pNMCA4NTMuMzMzMzMzaDE3MC42NjY2Njd2MTcwLjY2NjY2N0gwdi0xNzAuNjY2NjY3eiBtNDI2LjY2NjY2NyAwaDE3MC42NjY2NjZ2MTcwLjY2NjY2N0g0MjYuNjY2NjY3di0xNzAuNjY2NjY3eiBtNDI2LjY2NjY2NiAwaDE3MC42NjY2Njd2MTcwLjY2NjY2N2gtMTcwLjY2NjY2N3YtMTcwLjY2NjY2N3oiLz48L3N2Zz4=;rotation=140;container=0;" parent="QabODWYc-xTbxn0SH4q3-18" vertex="1">
          <mxGeometry x="101" y="68" width="25.29" height="25.29" as="geometry" />
        </mxCell>
        <mxCell id="QabODWYc-xTbxn0SH4q3-22" style="vsdxID=273;rotation=-219;fillColor=#eeeeee;shape=stencil(nZBRDoQgDERP03+WHsHFe5iISyOCQdT19kIaIxq//Jtp3zTpAFaTaUYNUkwx+F6v1EYD+AUpyRkdKCYFqACrzgf9C352LfuxyWRWg1/yhT/nRE5IsZWuZtCSK8CPeI0e/hF+jV7AJM4PO7KWCyr390bSiNtEtQM=);strokeWidth=0;spacingTop=-3;spacingBottom=-3;spacingLeft=-3;spacingRight=-3;points=[];labelBackgroundColor=none;rounded=0;html=1;whiteSpace=wrap;strokeColor=none;fixDash=0;container=0;dropTarget=0;collapsible=0;part=0;metaEdit=0;backgroundOutline=0;autosize=0;fixedWidth=0;resizeWidth=0;resizeHeight=0;treeFolding=0;treeMoving=0;enumerate=0;" parent="QabODWYc-xTbxn0SH4q3-18" vertex="1">
          <mxGeometry x="30" width="58" height="78" as="geometry" />
        </mxCell>
        <mxCell id="QabODWYc-xTbxn0SH4q3-23" value="" style="shape=dataStorage;whiteSpace=wrap;html=1;fixedSize=1;rotation=186;size=13.39482074393743;strokeColor=none;container=0;" parent="QabODWYc-xTbxn0SH4q3-18" vertex="1">
          <mxGeometry x="104" y="57" width="35.21" height="58.38" as="geometry" />
        </mxCell>
        <mxCell id="QabODWYc-xTbxn0SH4q3-24" value="" style="shape=dataStorage;whiteSpace=wrap;html=1;fixedSize=1;rotation=-75;size=10.19517723437616;strokeColor=none;container=0;" parent="QabODWYc-xTbxn0SH4q3-18" vertex="1">
          <mxGeometry x="64" y="89" width="36.84" height="52" as="geometry" />
        </mxCell>
        <mxCell id="QabODWYc-xTbxn0SH4q3-25" value="" style="shape=image;verticalLabelPosition=bottom;labelBackgroundColor=default;verticalAlign=top;aspect=fixed;imageAspect=0;editableCssRules=.*;image=data:image/svg+xml,PHN2ZyB4bWxucz0iaHR0cDovL3d3dy53My5vcmcvMjAwMC9zdmciIHZlcnNpb249IjEuMSIgdmlld0JveD0iMCAwIDEwMjQgMTAyNCIgaGVpZ2h0PSIyMDAiIHdpZHRoPSIyMDAiIGNsYXNzPSJpY29uIj48cGF0aCBmaWxsPSIjOThBMUI1IiBkPSJNMCAwaDE3MC42NjY2Njd2MTcwLjY2NjY2N0gwVjB6IG00MjYuNjY2NjY3IDBoMTcwLjY2NjY2NnYxNzAuNjY2NjY3SDQyNi42NjY2NjdWMHogbTQyNi42NjY2NjYgMGgxNzAuNjY2NjY3djE3MC42NjY2NjdoLTE3MC42NjY2NjdWMHpNMCA0MjYuNjY2NjY3aDE3MC42NjY2Njd2MTcwLjY2NjY2NkgwVjQyNi42NjY2Njd6IG00MjYuNjY2NjY3IDBoMTcwLjY2NjY2NnYxNzAuNjY2NjY2SDQyNi42NjY2NjdWNDI2LjY2NjY2N3ogbTQyNi42NjY2NjYgMGgxNzAuNjY2NjY3djE3MC42NjY2NjZoLTE3MC42NjY2NjdWNDI2LjY2NjY2N3pNMCA4NTMuMzMzMzMzaDE3MC42NjY2Njd2MTcwLjY2NjY2N0gwdi0xNzAuNjY2NjY3eiBtNDI2LjY2NjY2NyAwaDE3MC42NjY2NjZ2MTcwLjY2NjY2N0g0MjYuNjY2NjY3di0xNzAuNjY2NjY3eiBtNDI2LjY2NjY2NiAwaDE3MC42NjY2Njd2MTcwLjY2NjY2N2gtMTcwLjY2NjY2N3YtMTcwLjY2NjY2N3oiLz48L3N2Zz4=;rotation=140;container=0;" parent="QabODWYc-xTbxn0SH4q3-18" vertex="1">
          <mxGeometry x="42" y="-2" width="25.29" height="25.29" as="geometry" />
        </mxCell>
        <mxCell id="QabODWYc-xTbxn0SH4q3-26" value="" style="shape=image;verticalLabelPosition=bottom;labelBackgroundColor=default;verticalAlign=top;aspect=fixed;imageAspect=0;editableCssRules=.*;image=data:image/svg+xml,PHN2ZyB4bWxucz0iaHR0cDovL3d3dy53My5vcmcvMjAwMC9zdmciIHZlcnNpb249IjEuMSIgdmlld0JveD0iMCAwIDEwMjQgMTAyNCIgaGVpZ2h0PSIyMDAiIHdpZHRoPSIyMDAiIGNsYXNzPSJpY29uIj48cGF0aCBmaWxsPSIjOThBMUI1IiBkPSJNMCAwaDE3MC42NjY2Njd2MTcwLjY2NjY2N0gwVjB6IG00MjYuNjY2NjY3IDBoMTcwLjY2NjY2NnYxNzAuNjY2NjY3SDQyNi42NjY2NjdWMHogbTQyNi42NjY2NjYgMGgxNzAuNjY2NjY3djE3MC42NjY2NjdoLTE3MC42NjY2NjdWMHpNMCA0MjYuNjY2NjY3aDE3MC42NjY2Njd2MTcwLjY2NjY2NkgwVjQyNi42NjY2Njd6IG00MjYuNjY2NjY3IDBoMTcwLjY2NjY2NnYxNzAuNjY2NjY2SDQyNi42NjY2NjdWNDI2LjY2NjY2N3ogbTQyNi42NjY2NjYgMGgxNzAuNjY2NjY3djE3MC42NjY2NjZoLTE3MC42NjY2NjdWNDI2LjY2NjY2N3pNMCA4NTMuMzMzMzMzaDE3MC42NjY2Njd2MTcwLjY2NjY2N0gwdi0xNzAuNjY2NjY3eiBtNDI2LjY2NjY2NyAwaDE3MC42NjY2NjZ2MTcwLjY2NjY2N0g0MjYuNjY2NjY3di0xNzAuNjY2NjY3eiBtNDI2LjY2NjY2NiAwaDE3MC42NjY2Njd2MTcwLjY2NjY2N2gtMTcwLjY2NjY2N3YtMTcwLjY2NjY2N3oiLz48L3N2Zz4=;rotation=140;container=0;" parent="QabODWYc-xTbxn0SH4q3-18" vertex="1">
          <mxGeometry x="18" y="16" width="25.29" height="25.29" as="geometry" />
        </mxCell>
        <mxCell id="QabODWYc-xTbxn0SH4q3-27" value="" style="shape=image;verticalLabelPosition=bottom;labelBackgroundColor=default;verticalAlign=top;aspect=fixed;imageAspect=0;editableCssRules=.*;image=data:image/svg+xml,PHN2ZyB4bWxucz0iaHR0cDovL3d3dy53My5vcmcvMjAwMC9zdmciIHZlcnNpb249IjEuMSIgdmlld0JveD0iMCAwIDEwMjQgMTAyNCIgaGVpZ2h0PSIyMDAiIHdpZHRoPSIyMDAiIGNsYXNzPSJpY29uIj48cGF0aCBmaWxsPSIjOThBMUI1IiBkPSJNMCAwaDE3MC42NjY2Njd2MTcwLjY2NjY2N0gwVjB6IG00MjYuNjY2NjY3IDBoMTcwLjY2NjY2NnYxNzAuNjY2NjY3SDQyNi42NjY2NjdWMHogbTQyNi42NjY2NjYgMGgxNzAuNjY2NjY3djE3MC42NjY2NjdoLTE3MC42NjY2NjdWMHpNMCA0MjYuNjY2NjY3aDE3MC42NjY2Njd2MTcwLjY2NjY2NkgwVjQyNi42NjY2Njd6IG00MjYuNjY2NjY3IDBoMTcwLjY2NjY2NnYxNzAuNjY2NjY2SDQyNi42NjY2NjdWNDI2LjY2NjY2N3ogbTQyNi42NjY2NjYgMGgxNzAuNjY2NjY3djE3MC42NjY2NjZoLTE3MC42NjY2NjdWNDI2LjY2NjY2N3pNMCA4NTMuMzMzMzMzaDE3MC42NjY2Njd2MTcwLjY2NjY2N0gwdi0xNzAuNjY2NjY3eiBtNDI2LjY2NjY2NyAwaDE3MC42NjY2NjZ2MTcwLjY2NjY2N0g0MjYuNjY2NjY3di0xNzAuNjY2NjY3eiBtNDI2LjY2NjY2NiAwaDE3MC42NjY2Njd2MTcwLjY2NjY2N2gtMTcwLjY2NjY2N3YtMTcwLjY2NjY2N3oiLz48L3N2Zz4=;rotation=140;container=0;" parent="QabODWYc-xTbxn0SH4q3-18" vertex="1">
          <mxGeometry x="38" y="43" width="25.29" height="25.29" as="geometry" />
        </mxCell>
        <mxCell id="QabODWYc-xTbxn0SH4q3-28" value="" style="shape=image;verticalLabelPosition=bottom;labelBackgroundColor=default;verticalAlign=top;aspect=fixed;imageAspect=0;editableCssRules=.*;image=data:image/svg+xml,PHN2ZyB4bWxucz0iaHR0cDovL3d3dy53My5vcmcvMjAwMC9zdmciIHZlcnNpb249IjEuMSIgdmlld0JveD0iMCAwIDEwMjQgMTAyNCIgaGVpZ2h0PSIyMDAiIHdpZHRoPSIyMDAiIGNsYXNzPSJpY29uIj48cGF0aCBmaWxsPSIjOThBMUI1IiBkPSJNMCAwaDE3MC42NjY2Njd2MTcwLjY2NjY2N0gwVjB6IG00MjYuNjY2NjY3IDBoMTcwLjY2NjY2NnYxNzAuNjY2NjY3SDQyNi42NjY2NjdWMHogbTQyNi42NjY2NjYgMGgxNzAuNjY2NjY3djE3MC42NjY2NjdoLTE3MC42NjY2NjdWMHpNMCA0MjYuNjY2NjY3aDE3MC42NjY2Njd2MTcwLjY2NjY2NkgwVjQyNi42NjY2Njd6IG00MjYuNjY2NjY3IDBoMTcwLjY2NjY2NnYxNzAuNjY2NjY2SDQyNi42NjY2NjdWNDI2LjY2NjY2N3ogbTQyNi42NjY2NjYgMGgxNzAuNjY2NjY3djE3MC42NjY2NjZoLTE3MC42NjY2NjdWNDI2LjY2NjY2N3pNMCA4NTMuMzMzMzMzaDE3MC42NjY2Njd2MTcwLjY2NjY2N0gwdi0xNzAuNjY2NjY3eiBtNDI2LjY2NjY2NyAwaDE3MC42NjY2NjZ2MTcwLjY2NjY2N0g0MjYuNjY2NjY3di0xNzAuNjY2NjY3eiBtNDI2LjY2NjY2NiAwaDE3MC42NjY2Njd2MTcwLjY2NjY2N2gtMTcwLjY2NjY2N3YtMTcwLjY2NjY2N3oiLz48L3N2Zz4=;rotation=140;container=0;" parent="QabODWYc-xTbxn0SH4q3-18" vertex="1">
          <mxGeometry x="62" y="22" width="25.29" height="25.29" as="geometry" />
        </mxCell>
        <mxCell id="QabODWYc-xTbxn0SH4q3-29" value="" style="shape=image;verticalLabelPosition=bottom;labelBackgroundColor=default;verticalAlign=top;aspect=fixed;imageAspect=0;editableCssRules=.*;image=data:image/svg+xml,PHN2ZyB4bWxucz0iaHR0cDovL3d3dy53My5vcmcvMjAwMC9zdmciIHZlcnNpb249IjEuMSIgdmlld0JveD0iMCAwIDEwMjQgMTAyNCIgaGVpZ2h0PSIyMDAiIHdpZHRoPSIyMDAiIGNsYXNzPSJpY29uIj48cGF0aCBmaWxsPSIjOThBMUI1IiBkPSJNMCAwaDE3MC42NjY2Njd2MTcwLjY2NjY2N0gwVjB6IG00MjYuNjY2NjY3IDBoMTcwLjY2NjY2NnYxNzAuNjY2NjY3SDQyNi42NjY2NjdWMHogbTQyNi42NjY2NjYgMGgxNzAuNjY2NjY3djE3MC42NjY2NjdoLTE3MC42NjY2NjdWMHpNMCA0MjYuNjY2NjY3aDE3MC42NjY2Njd2MTcwLjY2NjY2NkgwVjQyNi42NjY2Njd6IG00MjYuNjY2NjY3IDBoMTcwLjY2NjY2NnYxNzAuNjY2NjY2SDQyNi42NjY2NjdWNDI2LjY2NjY2N3ogbTQyNi42NjY2NjYgMGgxNzAuNjY2NjY3djE3MC42NjY2NjZoLTE3MC42NjY2NjdWNDI2LjY2NjY2N3pNMCA4NTMuMzMzMzMzaDE3MC42NjY2Njd2MTcwLjY2NjY2N0gwdi0xNzAuNjY2NjY3eiBtNDI2LjY2NjY2NyAwaDE3MC42NjY2NjZ2MTcwLjY2NjY2N0g0MjYuNjY2NjY3di0xNzAuNjY2NjY3eiBtNDI2LjY2NjY2NiAwaDE3MC42NjY2Njd2MTcwLjY2NjY2N2gtMTcwLjY2NjY2N3YtMTcwLjY2NjY2N3oiLz48L3N2Zz4=;rotation=140;container=0;" parent="QabODWYc-xTbxn0SH4q3-18" vertex="1">
          <mxGeometry x="80" y="45" width="25.29" height="25.29" as="geometry" />
        </mxCell>
        <mxCell id="QabODWYc-xTbxn0SH4q3-30" value="" style="shape=image;verticalLabelPosition=bottom;labelBackgroundColor=default;verticalAlign=top;aspect=fixed;imageAspect=0;editableCssRules=.*;image=data:image/svg+xml,PHN2ZyB4bWxucz0iaHR0cDovL3d3dy53My5vcmcvMjAwMC9zdmciIHZlcnNpb249IjEuMSIgdmlld0JveD0iMCAwIDEwMjQgMTAyNCIgaGVpZ2h0PSIyMDAiIHdpZHRoPSIyMDAiIGNsYXNzPSJpY29uIj48cGF0aCBmaWxsPSIjOThBMUI1IiBkPSJNMCAwaDE3MC42NjY2Njd2MTcwLjY2NjY2N0gwVjB6IG00MjYuNjY2NjY3IDBoMTcwLjY2NjY2NnYxNzAuNjY2NjY3SDQyNi42NjY2NjdWMHogbTQyNi42NjY2NjYgMGgxNzAuNjY2NjY3djE3MC42NjY2NjdoLTE3MC42NjY2NjdWMHpNMCA0MjYuNjY2NjY3aDE3MC42NjY2Njd2MTcwLjY2NjY2NkgwVjQyNi42NjY2Njd6IG00MjYuNjY2NjY3IDBoMTcwLjY2NjY2NnYxNzAuNjY2NjY2SDQyNi42NjY2NjdWNDI2LjY2NjY2N3ogbTQyNi42NjY2NjYgMGgxNzAuNjY2NjY3djE3MC42NjY2NjZoLTE3MC42NjY2NjdWNDI2LjY2NjY2N3pNMCA4NTMuMzMzMzMzaDE3MC42NjY2Njd2MTcwLjY2NjY2N0gwdi0xNzAuNjY2NjY3eiBtNDI2LjY2NjY2NyAwaDE3MC42NjY2NjZ2MTcwLjY2NjY2N0g0MjYuNjY2NjY3di0xNzAuNjY2NjY3eiBtNDI2LjY2NjY2NiAwaDE3MC42NjY2Njd2MTcwLjY2NjY2N2gtMTcwLjY2NjY2N3YtMTcwLjY2NjY2N3oiLz48L3N2Zz4=;rotation=140;container=0;" parent="QabODWYc-xTbxn0SH4q3-18" vertex="1">
          <mxGeometry x="58" y="66" width="25.29" height="25.29" as="geometry" />
        </mxCell>
        <mxCell id="QabODWYc-xTbxn0SH4q3-31" style="vsdxID=324;rotation=140;fillColor=#647687;shape=stencil(tZTbUsMgEIafhsswHJPmWut7MC1tGWPSIamNby+RhWSjrTqjd7B8sP8eWCIf+pM5WyJYP/ju2V7dfjgR+UiEcO3JejeEFZFbIh8OnbdH313afdyfzUROq5fudXphjPdqTXU13RLsLVrYx+4pwruLjzTP+KYEHEyMljxaRgFQSbkGCEyccvAyygwpBZBMUFktnRu/C6celGrKgfegNJhUehUerWmNgglIJQEpzOj6wneDGVzXLoNljfFHWwR/xaExR3TUX609L8z8Xno4Yzg5SlEtcXZmBgxlTdkqOTMj18xPPW/KnK9cl4rqzaou6VouSxBcY9+JAc+Naxf9E0rAUcZX9FqnoEpiobMEgRKfJC4DkZi4lRwskZGvO+JGl4nPXVZr1GUy1zTFTEX6Av/QZFggD79EYoV6ritAKgtCn/qv5N3ph2/mya/gsJjH1sE1TZx6y/P1mAumOCLl9h0=);strokeColor=#314354;strokeWidth=0;spacingTop=-3;spacingBottom=-3;spacingLeft=-3;spacingRight=-3;points=[];labelBackgroundColor=none;rounded=0;html=1;whiteSpace=wrap;container=0;fontColor=#ffffff;" parent="QabODWYc-xTbxn0SH4q3-18" vertex="1">
          <mxGeometry x="52" y="29" width="21" height="30" as="geometry" />
        </mxCell>
        <mxCell id="QabODWYc-xTbxn0SH4q3-32" style="vsdxID=276;rotation=-219;fillColor=#647687;shape=stencil(vVFBDgIhDHwNRxKE+IJ1/Ufjll0iLpuCLv5eSDWKevLgbaYznTatMF2cYEGhVUwUjri6IU3C7ITWbp6QXCpImF6YzgbCkcJ5HpgvUJ0VncKlJmTuU7VDqyuzLdM9O4EORaLcaIpa7yNoo75GqSwhuygpJEguzM1UDzSiLGOk9TDec1iKK+LyUf5lsf+tVcDzzNZ5z1961d/fUkr8UtPfAA==);strokeColor=#314354;points=[[0.5,0,0],[0.5,0.5,0],[0.5,0.5,0],[0.5,0.5,0],[1,0.5,0]];labelBackgroundColor=none;rounded=0;html=1;whiteSpace=wrap;fontColor=#ffffff;container=0;" parent="QabODWYc-xTbxn0SH4q3-18" vertex="1">
          <mxGeometry x="11" y="9" width="19" height="8" as="geometry" />
        </mxCell>
        <mxCell id="QabODWYc-xTbxn0SH4q3-33" style="vsdxID=277;rotation=-219;fillColor=#647687;shape=stencil(vVFBDgIhDHwNRxKE+IJ1/Ufjll0iLpuCLv5eSDWKevLgbaYznTatMF2cYEGhVUwUjri6IU3C7ITWbp6QXCpImF6YzgbCkcJ5HpgvUJ0VncKlJmTuU7VDqyuzLdM9O4EORaLcaIpa7yNoo75GqSwhuygpJEguzM1UDzSiLGOk9TDec1iKK+LyUf5lsf+tVcDzzNZ5z1961d/fUkr8UtPfAA==);strokeColor=#314354;points=[[0.5,0,0],[0.5,0.5,0],[0.5,0.5,0],[0.5,0.5,0],[1,0.5,0]];labelBackgroundColor=none;rounded=0;html=1;whiteSpace=wrap;fontColor=#ffffff;container=0;" parent="QabODWYc-xTbxn0SH4q3-18" vertex="1">
          <mxGeometry x="32" y="-8" width="19" height="8" as="geometry" />
        </mxCell>
        <mxCell id="QabODWYc-xTbxn0SH4q3-34" style="vsdxID=278;rotation=-219;fillColor=#647687;shape=stencil(vVHLDsIgEPwajiQU4hfU+h8bu7RELM2CFv9eyMZYjCcP3mZ2Zh/ZEaaPM6wotIqJwgU3N6ZZmKPQ2i0zkksFCTMI09tAOFG4LSPzFaqzomu41wmZ+1Tt0OrB7MD0xE6gc5EoN5qi1vsa1Kmvo1SWkF2UFBIkF5ZmqweaUJY10nqYGiluiOuu3P182P/OKuD9Zuu855T2+mcspcSRmuEJ);strokeColor=#314354;points=[[0.5,0,0],[0.5,0.5,0],[0.5,0.5,0],[0.5,0.5,0],[1,0.5,0],[0.15,0.85,0],[0.85,0.85,0],[0.85,0.15,0],[0.15,0.15,0]];labelBackgroundColor=none;rounded=0;html=1;whiteSpace=wrap;fontColor=#ffffff;container=0;" parent="QabODWYc-xTbxn0SH4q3-18" vertex="1">
          <mxGeometry x="26" width="10" height="10" as="geometry" />
        </mxCell>
        <mxCell id="QabODWYc-xTbxn0SH4q3-35" value="&lt;i style=&quot;caret-color: rgb(0, 0, 0); font-family: &amp;quot;Times New Roman&amp;quot;; font-size: 25px; font-variant-caps: normal; font-weight: 400; letter-spacing: normal; text-align: center; text-indent: 0px; text-transform: none; white-space: normal; word-spacing: 0px; -webkit-text-stroke-width: 0px; text-decoration: none; color: light-dark(rgb(145, 145, 145), rgb(237, 237, 237));&quot;&gt;Phantom Guiding Vessel 1#&lt;/i&gt;" style="text;whiteSpace=wrap;html=1;" parent="QabODWYc-xTbxn0SH4q3-18" vertex="1">
          <mxGeometry x="-45.75" y="108" width="189.75" height="63" as="geometry" />
        </mxCell>
        <UserObject label="" tags="连接线" id="QabODWYc-xTbxn0SH4q3-36">
          <mxCell style="vsdxID=230;edgeStyle=none;startArrow=none;endArrow=open;startSize=22;endSize=22;strokeWidth=4;strokeColor=#000000;spacingTop=0;spacingBottom=0;spacingLeft=0;spacingRight=0;verticalAlign=middle;html=1;labelBackgroundColor=#ffffff;rounded=0;" parent="1" edge="1">
            <mxGeometry relative="1" as="geometry">
              <Array as="points" />
              <mxPoint x="318.86" y="2127" as="sourcePoint" />
              <mxPoint x="323.86" y="1300" as="targetPoint" />
            </mxGeometry>
          </mxCell>
        </UserObject>
        <UserObject label="" tags="连接线" id="QabODWYc-xTbxn0SH4q3-37">
          <mxCell style="vsdxID=231;edgeStyle=none;startArrow=none;endArrow=open;startSize=22;endSize=22;strokeWidth=4;strokeColor=#000000;spacingTop=0;spacingBottom=0;spacingLeft=0;spacingRight=0;verticalAlign=middle;html=1;labelBackgroundColor=#FFFFFF;rounded=0;entryX=1.049;entryY=-0.089;entryDx=0;entryDy=0;entryPerimeter=0;" parent="1" edge="1">
            <mxGeometry relative="1" as="geometry">
              <Array as="points" />
              <mxPoint x="318.86" y="2127" as="sourcePoint" />
              <mxPoint x="1304.5259999999996" y="2124.3509999999997" as="targetPoint" />
            </mxGeometry>
          </mxCell>
        </UserObject>
        <UserObject label="&lt;div&gt;&lt;font style=&quot;font-family: &amp;quot;Times New Roman&amp;quot;; direction: ltr; letter-spacing: 0px; line-height: 120%; opacity: 1;&quot;&gt;&lt;i&gt;&lt;span style=&quot;color: light-dark(rgb(0, 253, 255), rgb(237, 237, 237));&quot;&gt;Follower USV1&lt;/span&gt;&lt;br&gt;&lt;/i&gt;&lt;/font&gt;&lt;/div&gt;" tags="背景" id="QabODWYc-xTbxn0SH4q3-40">
          <mxCell style="verticalAlign=middle;align=center;overflow=width;vsdxID=248;fillColor=none;gradientColor=none;shape=stencil(nZBLDoAgDERP0z3SIyjew0SURgSD+Lu9kMZoXLhwN9O+tukAlrNpJg1SzDH4QW/URgNYgZTkjA4UkwJUgGXng+6DX1zLfmoymdXo17xh5zmRJ6Q42BWCfc2oJfdAr+Yv+AP9Cb7OJ3H/2JG1HNGz/84klThPVCc=);strokeColor=none;strokeWidth=2;points=[];labelBackgroundColor=none;rounded=0;html=1;whiteSpace=wrap;fontSize=25;" parent="1" vertex="1">
            <mxGeometry x="527.25" y="564" width="152.75" height="66" as="geometry" />
          </mxCell>
        </UserObject>
        <mxCell id="QabODWYc-xTbxn0SH4q3-46" value="\(Y_{B}\)" style="text;html=1;align=center;verticalAlign=middle;whiteSpace=wrap;rounded=0;fontSize=22;fontStyle=1" parent="1" vertex="1">
          <mxGeometry x="721.64" y="1049" width="41" height="20" as="geometry" />
        </mxCell>
        <mxCell id="QabODWYc-xTbxn0SH4q3-47" value="\(Y_{B}\)" style="text;html=1;align=center;verticalAlign=middle;whiteSpace=wrap;rounded=0;fontSize=22;fontStyle=1" parent="1" vertex="1">
          <mxGeometry x="1390.77" y="1041" width="41" height="20" as="geometry" />
        </mxCell>
        <mxCell id="QabODWYc-xTbxn0SH4q3-48" value="\(X_{B}\)" style="text;html=1;align=center;verticalAlign=middle;whiteSpace=wrap;rounded=0;fontSize=22;fontStyle=1" parent="1" vertex="1">
          <mxGeometry x="1224.71" y="969.5300000000002" width="34" height="20" as="geometry" />
        </mxCell>
        <mxCell id="QabODWYc-xTbxn0SH4q3-49" value="" style="group;rotation=-30;" parent="1" vertex="1" connectable="0">
          <mxGeometry x="1182.71" y="469.00176964119737" width="196" height="112.01296706855135" as="geometry" />
        </mxCell>
        <mxCell id="QabODWYc-xTbxn0SH4q3-50" style="vsdxID=272;rotation=-314;fillColor=#e51400;shape=stencil(lZPRcoMgEEW/hkeZZdERntPkP5gElamVDJrG/H2xUBQzk2ne2OWwFy67hB/GTl01QRgnZz/13VymjvAPgmiGTjsz+RXhR8IPjXW6dfY2XEJ8VQu5rL7s91JhDueAAi6HEB4hwQB+41OgzzcXcJZ4FvmYkZIyGVIzRigSMZSCchEJnhMxlDWt6peyuWYpqRS5JvPXYLkuA4os1y1LWuXSQKXcKit39rtuTlXrcDFw0SCskmURqqpUdFcT5kLNZiycndRk7JA9pleu1YXXK5petdnWeNf6ukmzV94IoELm/mxfjvm/Jne2HvI9899/WU+w57/G1CB/djzwuWf4SolcfdeKvRneaNz3aL9YJ6QxfR8GbLu/nyifCtPIjz8=);strokeColor=light-dark(#E51400,#FFACAC);strokeWidth=0;spacingTop=-3;spacingBottom=-3;spacingLeft=-3;spacingRight=-3;points=[];labelBackgroundColor=none;rounded=0;html=1;whiteSpace=wrap;fontColor=#ffffff;" parent="QabODWYc-xTbxn0SH4q3-49" vertex="1">
          <mxGeometry x="72" y="6" width="57.5" height="46" as="geometry" />
        </mxCell>
        <mxCell id="QabODWYc-xTbxn0SH4q3-51" style="vsdxID=273;rotation=-314;fillColor=#e51400;shape=stencil(nZBRDoQgDERP03+WHsHFe5iISyOCQdT19kIaIxq//Jtp3zTpAFaTaUYNUkwx+F6v1EYD+AUpyRkdKCYFqACrzgf9C352LfuxyWRWg1/yhT/nRE5IsZWuZtCSK8CPeI0e/hF+jV7AJM4PO7KWCyr390bSiNtEtQM=);strokeColor=#E51400;strokeWidth=0;spacingTop=-3;spacingBottom=-3;spacingLeft=-3;spacingRight=-3;points=[];labelBackgroundColor=none;rounded=0;html=1;whiteSpace=wrap;fontColor=#ffffff;" parent="QabODWYc-xTbxn0SH4q3-49" vertex="1">
          <mxGeometry x="27" y="33" width="58" height="78" as="geometry" />
        </mxCell>
        <mxCell id="QabODWYc-xTbxn0SH4q3-52" style="vsdxID=274;rotation=-314;fillColor=#ffcd28;gradientColor=#ffa500;shape=stencil(tZTbUsMgEIafhsswHJPmWut7MC1tGWPSIamNby+RhWSjrTqjd7B8sP8eWCIf+pM5WyJYP/ju2V7dfjgR+UiEcO3JejeEFZFbIh8OnbdH313afdyfzUROq5fudXphjPdqTXU13RLsLVrYx+4pwruLjzTP+KYEHEyMljxaRgFQSbkGCEyccvAyygwpBZBMUFktnRu/C6celGrKgfegNJhUehUerWmNgglIJQEpzOj6wneDGVzXLoNljfFHWwR/xaExR3TUX609L8z8Xno4Yzg5SlEtcXZmBgxlTdkqOTMj18xPPW/KnK9cl4rqzaou6VouSxBcY9+JAc+Naxf9E0rAUcZX9FqnoEpiobMEgRKfJC4DkZi4lRwskZGvO+JGl4nPXVZr1GUy1zTFTEX6Av/QZFggD79EYoV6ritAKgtCn/qv5N3ph2/mya/gsJjH1sE1TZx6y/P1mAumOCLl9h0=);strokeColor=#d79b00;strokeWidth=0;spacingTop=-3;spacingBottom=-3;spacingLeft=-3;spacingRight=-3;points=[];labelBackgroundColor=none;rounded=0;html=1;whiteSpace=wrap;" parent="QabODWYc-xTbxn0SH4q3-49" vertex="1">
          <mxGeometry x="51" y="52" width="21" height="30" as="geometry" />
        </mxCell>
        <mxCell id="QabODWYc-xTbxn0SH4q3-53" style="vsdxID=275;fillColor=none;gradientColor=none;strokeColor=none;strokeWidth=2;points=[];labelBackgroundColor=none;rounded=0;html=1;whiteSpace=wrap;rotation=-374;" parent="QabODWYc-xTbxn0SH4q3-49" vertex="1">
          <mxGeometry x="10" y="82" width="26" height="39" as="geometry" />
        </mxCell>
        <mxCell id="QabODWYc-xTbxn0SH4q3-54" style="vsdxID=276;rotation=-314;fillColor=#003232;gradientColor=none;shape=stencil(vVFBDgIhDHwNRxKE+IJ1/Ufjll0iLpuCLv5eSDWKevLgbaYznTatMF2cYEGhVUwUjri6IU3C7ITWbp6QXCpImF6YzgbCkcJ5HpgvUJ0VncKlJmTuU7VDqyuzLdM9O4EORaLcaIpa7yNoo75GqSwhuygpJEguzM1UDzSiLGOk9TDec1iKK+LyUf5lsf+tVcDzzNZ5z1961d/fUkr8UtPfAA==);strokeColor=#3c668c;points=[[0.5,0,0],[0.5,0.5,0],[0.5,0.5,0],[0.5,0.5,0],[1,0.5,0]];labelBackgroundColor=none;rounded=0;html=1;whiteSpace=wrap;" parent="QabODWYc-xTbxn0SH4q3-53" vertex="1">
          <mxGeometry x="13" y="26" width="19" height="8" as="geometry" />
        </mxCell>
        <mxCell id="QabODWYc-xTbxn0SH4q3-55" style="vsdxID=277;rotation=-314;fillColor=#003232;gradientColor=none;shape=stencil(vVFBDgIhDHwNRxKE+IJ1/Ufjll0iLpuCLv5eSDWKevLgbaYznTatMF2cYEGhVUwUjri6IU3C7ITWbp6QXCpImF6YzgbCkcJ5HpgvUJ0VncKlJmTuU7VDqyuzLdM9O4EORaLcaIpa7yNoo75GqSwhuygpJEguzM1UDzSiLGOk9TDec1iKK+LyUf5lsf+tVcDzzNZ5z1961d/fUkr8UtPfAA==);strokeColor=#3c668c;points=[[0.5,0,0],[0.5,0.5,0],[0.5,0.5,0],[0.5,0.5,0],[1,0.5,0]];labelBackgroundColor=none;rounded=0;html=1;whiteSpace=wrap;" parent="QabODWYc-xTbxn0SH4q3-53" vertex="1">
          <mxGeometry x="-7" y="6" width="19" height="8" as="geometry" />
        </mxCell>
        <mxCell id="QabODWYc-xTbxn0SH4q3-56" style="vsdxID=278;rotation=-314;fillColor=#003232;gradientColor=none;shape=stencil(vVHLDsIgEPwajiQU4hfU+h8bu7RELM2CFv9eyMZYjCcP3mZ2Zh/ZEaaPM6wotIqJwgU3N6ZZmKPQ2i0zkksFCTMI09tAOFG4LSPzFaqzomu41wmZ+1Tt0OrB7MD0xE6gc5EoN5qi1vsa1Kmvo1SWkF2UFBIkF5ZmqweaUJY10nqYGiluiOuu3P182P/OKuD9Zuu855T2+mcspcSRmuEJ);strokeColor=#3c668c;points=[[0.5,0,0],[0.5,0.5,0],[0.5,0.5,0],[0.5,0.5,0],[1,0.5,0],[0.15,0.85,0],[0.85,0.85,0],[0.85,0.15,0],[0.15,0.15,0]];labelBackgroundColor=none;rounded=0;html=1;whiteSpace=wrap;" parent="QabODWYc-xTbxn0SH4q3-53" vertex="1">
          <mxGeometry x="8" y="14" width="10" height="10" as="geometry" />
        </mxCell>
        <mxCell id="QabODWYc-xTbxn0SH4q3-57" value="\(\theta_{L}^3\)" style="text;html=1;align=center;verticalAlign=middle;whiteSpace=wrap;rounded=0;fontSize=22;fontStyle=1" parent="QabODWYc-xTbxn0SH4q3-49" vertex="1">
          <mxGeometry x="131" y="53" width="19.5" height="30.01" as="geometry" />
        </mxCell>
        <mxCell id="QabODWYc-xTbxn0SH4q3-58" value="" style="verticalLabelPosition=bottom;verticalAlign=top;html=1;shape=mxgraph.basic.arc;startAngle=0.6446636711239229;endAngle=0.05730522207257273;rotation=30;dashed=1;strokeWidth=2;dashPattern=1 1;" parent="QabODWYc-xTbxn0SH4q3-49" vertex="1">
          <mxGeometry x="39.07" y="37.04" width="49.04" height="44.63" as="geometry" />
        </mxCell>
        <mxCell id="QabODWYc-xTbxn0SH4q3-59" value="" style="verticalLabelPosition=bottom;verticalAlign=top;html=1;shape=mxgraph.basic.arc;startAngle=0.48020828791971726;endAngle=0.040483933883440945;rotation=45;dashed=1;strokeWidth=2;dashPattern=1 1;" parent="QabODWYc-xTbxn0SH4q3-49" vertex="1">
          <mxGeometry x="48.94" y="48.2" width="27.09" height="26.53" as="geometry" />
        </mxCell>
        <mxCell id="QabODWYc-xTbxn0SH4q3-60" value="" style="verticalLabelPosition=bottom;verticalAlign=top;html=1;shape=mxgraph.basic.arc;startAngle=0.8377986173506914;endAngle=0.21452432620860712;rotation=15;strokeWidth=2;" parent="QabODWYc-xTbxn0SH4q3-49" vertex="1">
          <mxGeometry x="58" y="25" width="32.06" height="28" as="geometry" />
        </mxCell>
        <mxCell id="QabODWYc-xTbxn0SH4q3-61" value="" style="verticalLabelPosition=bottom;verticalAlign=top;html=1;shape=mxgraph.basic.arc;startAngle=0.05887237911539524;endAngle=0.40546631161850466;rotation=30;strokeWidth=2;" parent="QabODWYc-xTbxn0SH4q3-49" vertex="1">
          <mxGeometry x="38.49000000000001" y="36.90000000000009" width="48" height="50.51" as="geometry" />
        </mxCell>
        <mxCell id="QabODWYc-xTbxn0SH4q3-62" value="" style="endArrow=classic;html=1;rounded=0;edgeStyle=orthogonalEdgeStyle;curved=1;targetPerimeterSpacing=14;endSize=4;endFill=1;entryX=0.995;entryY=0.532;entryDx=0;entryDy=0;entryPerimeter=0;strokeWidth=2;" parent="QabODWYc-xTbxn0SH4q3-49" target="QabODWYc-xTbxn0SH4q3-61" edge="1">
          <mxGeometry width="50" height="50" relative="1" as="geometry">
            <mxPoint x="126" y="67.99823035880263" as="sourcePoint" />
            <mxPoint x="60" y="67.99823035880263" as="targetPoint" />
            <Array as="points">
              <mxPoint x="108" y="68" />
              <mxPoint x="108" y="75" />
            </Array>
          </mxGeometry>
        </mxCell>
        <mxCell id="QabODWYc-xTbxn0SH4q3-63" value="" style="endArrow=classic;html=1;rounded=0;edgeStyle=orthogonalEdgeStyle;curved=1;targetPerimeterSpacing=14;endSize=4;endFill=1;entryX=0.608;entryY=-0.034;entryDx=0;entryDy=0;entryPerimeter=0;strokeWidth=2;" parent="QabODWYc-xTbxn0SH4q3-49" target="QabODWYc-xTbxn0SH4q3-60" edge="1">
          <mxGeometry width="50" height="50" relative="1" as="geometry">
            <mxPoint x="99" y="-4.00176964119737" as="sourcePoint" />
            <mxPoint x="144" y="24.980000000000018" as="targetPoint" />
            <Array as="points">
              <mxPoint x="99" y="-4" />
              <mxPoint x="99" y="25" />
            </Array>
          </mxGeometry>
        </mxCell>
        <UserObject label="&lt;div&gt;&lt;font style=&quot;font-family: &amp;quot;Times New Roman&amp;quot;; direction: ltr; letter-spacing: 0px; line-height: 120%; opacity: 1;&quot;&gt;&lt;i style=&quot;color: light-dark(rgb(0, 253, 255), rgb(237, 237, 237));&quot;&gt;Follower USV2&lt;br&gt;&lt;/i&gt;&lt;/font&gt;&lt;/div&gt;&lt;div&gt;&lt;font style=&quot;font-family: &amp;quot;Times New Roman&amp;quot;; color: rgb(0, 0, 0); direction: ltr; letter-spacing: 0px; line-height: 120%; opacity: 1;&quot;&gt;&lt;i&gt;&lt;br&gt;&lt;/i&gt;&lt;/font&gt;&lt;/div&gt;" tags="背景" id="QabODWYc-xTbxn0SH4q3-64">
          <mxCell style="verticalAlign=middle;align=center;overflow=width;vsdxID=248;fillColor=none;gradientColor=none;shape=stencil(nZBLDoAgDERP0z3SIyjew0SURgSD+Lu9kMZoXLhwN9O+tukAlrNpJg1SzDH4QW/URgNYgZTkjA4UkwJUgGXng+6DX1zLfmoymdXo17xh5zmRJ6Q42BWCfc2oJfdAr+Yv+AP9Cb7OJ3H/2JG1HNGz/84klThPVCc=);strokeColor=none;strokeWidth=2;points=[];labelBackgroundColor=none;rounded=0;html=1;whiteSpace=wrap;fontSize=25;" parent="1" vertex="1">
            <mxGeometry x="614" y="1097" width="135.5" height="61" as="geometry" />
          </mxCell>
        </UserObject>
        <UserObject label="&lt;div&gt;&lt;font style=&quot;font-family: &amp;quot;Times New Roman&amp;quot;; direction: ltr; letter-spacing: 0px; line-height: 120%; opacity: 1;&quot;&gt;&lt;i style=&quot;color: light-dark(rgb(0, 253, 255), rgb(237, 237, 237));&quot;&gt;Follower USV3&lt;/i&gt;&lt;/font&gt;&lt;/div&gt;&lt;div&gt;&lt;font style=&quot;font-family: &amp;quot;Times New Roman&amp;quot;; color: rgb(0, 0, 0); direction: ltr; letter-spacing: 0px; line-height: 120%; opacity: 1;&quot;&gt;&lt;i&gt;&lt;br&gt;&lt;/i&gt;&lt;/font&gt;&lt;/div&gt;" tags="背景" id="QabODWYc-xTbxn0SH4q3-65">
          <mxCell style="verticalAlign=middle;align=center;overflow=width;vsdxID=248;fillColor=none;gradientColor=none;shape=stencil(nZBLDoAgDERP0z3SIyjew0SURgSD+Lu9kMZoXLhwN9O+tukAlrNpJg1SzDH4QW/URgNYgZTkjA4UkwJUgGXng+6DX1zLfmoymdXo17xh5zmRJ6Q42BWCfc2oJfdAr+Yv+AP9Cb7OJ3H/2JG1HNGz/84klThPVCc=);strokeColor=none;strokeWidth=2;points=[];labelBackgroundColor=none;rounded=0;html=1;whiteSpace=wrap;fontSize=25;" parent="1" vertex="1">
            <mxGeometry x="1390.77" y="1082.5" width="135.5" height="54" as="geometry" />
          </mxCell>
        </UserObject>
        <mxCell id="QabODWYc-xTbxn0SH4q3-66" value="" style="group;rotation=-15;" parent="1" vertex="1" connectable="0">
          <mxGeometry x="955.7100000000002" y="465.00176964119737" width="269.9999999999999" height="187" as="geometry" />
        </mxCell>
        <mxCell id="QabODWYc-xTbxn0SH4q3-67" style="vsdxID=272;rotation=45;fillColor=light-dark(#B9E0A5,#FF9281);shape=stencil(lZPRcoMgEEW/hkeZZdERntPkP5gElamVDJrG/H2xUBQzk2ne2OWwFy67hB/GTl01QRgnZz/13VymjvAPgmiGTjsz+RXhR8IPjXW6dfY2XEJ8VQu5rL7s91JhDueAAi6HEB4hwQB+41OgzzcXcJZ4FvmYkZIyGVIzRigSMZSCchEJnhMxlDWt6peyuWYpqRS5JvPXYLkuA4os1y1LWuXSQKXcKit39rtuTlXrcDFw0SCskmURqqpUdFcT5kLNZiycndRk7JA9pleu1YXXK5petdnWeNf6ukmzV94IoELm/mxfjvm/Jne2HvI9899/WU+w57/G1CB/djzwuWf4SolcfdeKvRneaNz3aL9YJ6QxfR8GbLu/nyifCtPIjz8=);strokeColor=light-dark(#B9E0A5,#FFACAC);strokeWidth=0;spacingTop=-3;spacingBottom=-3;spacingLeft=-3;spacingRight=-3;points=[];labelBackgroundColor=none;rounded=0;html=1;whiteSpace=wrap;fontColor=#ffffff;" parent="QabODWYc-xTbxn0SH4q3-66" vertex="1">
          <mxGeometry x="67.72" y="8.52" width="58.12" height="45" as="geometry" />
        </mxCell>
        <mxCell id="QabODWYc-xTbxn0SH4q3-68" style="vsdxID=273;rotation=45;fillColor=#B9E0A5;shape=stencil(nZBRDoQgDERP03+WHsHFe5iISyOCQdT19kIaIxq//Jtp3zTpAFaTaUYNUkwx+F6v1EYD+AUpyRkdKCYFqACrzgf9C352LfuxyWRWg1/yhT/nRE5IsZWuZtCSK8CPeI0e/hF+jV7AJM4PO7KWCyr390bSiNtEtQM=);strokeColor=#B9E0A5;strokeWidth=0;spacingTop=-3;spacingBottom=-3;spacingLeft=-3;spacingRight=-3;points=[];labelBackgroundColor=none;rounded=0;html=1;whiteSpace=wrap;fontColor=#ffffff;" parent="QabODWYc-xTbxn0SH4q3-66" vertex="1">
          <mxGeometry x="27" y="33" width="58" height="78" as="geometry" />
        </mxCell>
        <mxCell id="QabODWYc-xTbxn0SH4q3-69" style="vsdxID=274;rotation=45;fillColor=#ffe6cc;shape=stencil(tZTbUsMgEIafhsswHJPmWut7MC1tGWPSIamNby+RhWSjrTqjd7B8sP8eWCIf+pM5WyJYP/ju2V7dfjgR+UiEcO3JejeEFZFbIh8OnbdH313afdyfzUROq5fudXphjPdqTXU13RLsLVrYx+4pwruLjzTP+KYEHEyMljxaRgFQSbkGCEyccvAyygwpBZBMUFktnRu/C6celGrKgfegNJhUehUerWmNgglIJQEpzOj6wneDGVzXLoNljfFHWwR/xaExR3TUX609L8z8Xno4Yzg5SlEtcXZmBgxlTdkqOTMj18xPPW/KnK9cl4rqzaou6VouSxBcY9+JAc+Naxf9E0rAUcZX9FqnoEpiobMEgRKfJC4DkZi4lRwskZGvO+JGl4nPXVZr1GUy1zTFTEX6Av/QZFggD79EYoV6ritAKgtCn/qv5N3ph2/mya/gsJjH1sE1TZx6y/P1mAumOCLl9h0=);strokeColor=#d79b00;strokeWidth=0;spacingTop=-3;spacingBottom=-3;spacingLeft=-3;spacingRight=-3;points=[];labelBackgroundColor=none;rounded=0;html=1;whiteSpace=wrap;" parent="QabODWYc-xTbxn0SH4q3-66" vertex="1">
          <mxGeometry x="51" y="51" width="21" height="30" as="geometry" />
        </mxCell>
        <mxCell id="QabODWYc-xTbxn0SH4q3-70" style="vsdxID=275;fillColor=none;gradientColor=none;strokeColor=none;strokeWidth=2;points=[];labelBackgroundColor=none;rounded=0;html=1;whiteSpace=wrap;rotation=-15;" parent="QabODWYc-xTbxn0SH4q3-66" vertex="1">
          <mxGeometry x="10" y="83" width="26" height="39" as="geometry" />
        </mxCell>
        <mxCell id="QabODWYc-xTbxn0SH4q3-71" style="vsdxID=276;rotation=45;fillColor=#003232;gradientColor=none;shape=stencil(vVFBDgIhDHwNRxKE+IJ1/Ufjll0iLpuCLv5eSDWKevLgbaYznTatMF2cYEGhVUwUjri6IU3C7ITWbp6QXCpImF6YzgbCkcJ5HpgvUJ0VncKlJmTuU7VDqyuzLdM9O4EORaLcaIpa7yNoo75GqSwhuygpJEguzM1UDzSiLGOk9TDec1iKK+LyUf5lsf+tVcDzzNZ5z1961d/fUkr8UtPfAA==);strokeColor=#3c668c;points=[[0.5,0,0],[0.5,0.5,0],[0.5,0.5,0],[0.5,0.5,0],[1,0.5,0]];labelBackgroundColor=none;rounded=0;html=1;whiteSpace=wrap;" parent="QabODWYc-xTbxn0SH4q3-70" vertex="1">
          <mxGeometry x="13" y="25" width="19" height="8" as="geometry" />
        </mxCell>
        <mxCell id="QabODWYc-xTbxn0SH4q3-72" style="vsdxID=277;rotation=45;fillColor=#003232;gradientColor=none;shape=stencil(vVFBDgIhDHwNRxKE+IJ1/Ufjll0iLpuCLv5eSDWKevLgbaYznTatMF2cYEGhVUwUjri6IU3C7ITWbp6QXCpImF6YzgbCkcJ5HpgvUJ0VncKlJmTuU7VDqyuzLdM9O4EORaLcaIpa7yNoo75GqSwhuygpJEguzM1UDzSiLGOk9TDec1iKK+LyUf5lsf+tVcDzzNZ5z1961d/fUkr8UtPfAA==);strokeColor=#3c668c;points=[[0.5,0,0],[0.5,0.5,0],[0.5,0.5,0],[0.5,0.5,0],[1,0.5,0]];labelBackgroundColor=none;rounded=0;html=1;whiteSpace=wrap;" parent="QabODWYc-xTbxn0SH4q3-70" vertex="1">
          <mxGeometry x="-7" y="6" width="19" height="8" as="geometry" />
        </mxCell>
        <mxCell id="QabODWYc-xTbxn0SH4q3-73" style="vsdxID=278;rotation=45;fillColor=#003232;gradientColor=none;shape=stencil(vVHLDsIgEPwajiQU4hfU+h8bu7RELM2CFv9eyMZYjCcP3mZ2Zh/ZEaaPM6wotIqJwgU3N6ZZmKPQ2i0zkksFCTMI09tAOFG4LSPzFaqzomu41wmZ+1Tt0OrB7MD0xE6gc5EoN5qi1vsa1Kmvo1SWkF2UFBIkF5ZmqweaUJY10nqYGiluiOuu3P182P/OKuD9Zuu855T2+mcspcSRmuEJ);strokeColor=#3c668c;points=[[0.5,0,0],[0.5,0.5,0],[0.5,0.5,0],[0.5,0.5,0],[1,0.5,0],[0.15,0.85,0],[0.85,0.85,0],[0.85,0.15,0],[0.15,0.15,0]];labelBackgroundColor=none;rounded=0;html=1;whiteSpace=wrap;" parent="QabODWYc-xTbxn0SH4q3-70" vertex="1">
          <mxGeometry x="8" y="14" width="10" height="10" as="geometry" />
        </mxCell>
        <mxCell id="QabODWYc-xTbxn0SH4q3-74" value="\(\theta_{L}^2\)" style="text;html=1;align=center;verticalAlign=middle;whiteSpace=wrap;rounded=0;fontSize=22;fontStyle=1" parent="QabODWYc-xTbxn0SH4q3-66" vertex="1">
          <mxGeometry x="209" y="30.990000000000002" width="18" height="20.01" as="geometry" />
        </mxCell>
        <mxCell id="QabODWYc-xTbxn0SH4q3-75" value="\(d_{L}^1\)" style="text;html=1;align=center;verticalAlign=middle;whiteSpace=wrap;rounded=0;fontSize=22;fontStyle=1" parent="QabODWYc-xTbxn0SH4q3-66" vertex="1">
          <mxGeometry x="153" y="81" width="18" height="20.01" as="geometry" />
        </mxCell>
        <mxCell id="QabODWYc-xTbxn0SH4q3-76" value="" style="endArrow=classic;html=1;rounded=0;edgeStyle=orthogonalEdgeStyle;curved=1;targetPerimeterSpacing=14;endSize=4;endFill=1;strokeWidth=2;entryX=0.014;entryY=0.37;entryDx=0;entryDy=0;entryPerimeter=0;" parent="QabODWYc-xTbxn0SH4q3-66" target="QabODWYc-xTbxn0SH4q3-58" edge="1">
          <mxGeometry width="50" height="50" relative="1" as="geometry">
            <mxPoint x="241.9999999999999" y="8.99823035880263" as="sourcePoint" />
            <mxPoint x="268.9999999999999" y="44.99823035880263" as="targetPoint" />
            <Array as="points">
              <mxPoint x="273" y="9" />
            </Array>
          </mxGeometry>
        </mxCell>
        <UserObject label="&lt;div&gt;&lt;font style=&quot;font-family: &amp;quot;Times New Roman&amp;quot;; direction: ltr; letter-spacing: 0px; line-height: 120%; opacity: 1;&quot;&gt;&lt;i&gt;Virtual Leader Vessel 1&lt;br&gt;&lt;/i&gt;&lt;/font&gt;&lt;/div&gt;&lt;div&gt;&lt;font style=&quot;font-family: &amp;quot;Times New Roman&amp;quot;; direction: ltr; letter-spacing: 0px; line-height: 120%; opacity: 1;&quot;&gt;&lt;i&gt;&lt;br&gt;&lt;/i&gt;&lt;/font&gt;&lt;/div&gt;" tags="背景" id="QabODWYc-xTbxn0SH4q3-77">
          <mxCell style="verticalAlign=middle;align=center;overflow=width;vsdxID=248;fillColor=none;gradientColor=none;shape=stencil(nZBLDoAgDERP0z3SIyjew0SURgSD+Lu9kMZoXLhwN9O+tukAlrNpJg1SzDH4QW/URgNYgZTkjA4UkwJUgGXng+6DX1zLfmoymdXo17xh5zmRJ6Q42BWCfc2oJfdAr+Yv+AP9Cb7OJ3H/2JG1HNGz/84klThPVCc=);strokeColor=none;strokeWidth=2;points=[];labelBackgroundColor=none;rounded=0;html=1;whiteSpace=wrap;fontSize=25;fontColor=light-dark(#96d35f, #ededed);" parent="QabODWYc-xTbxn0SH4q3-66" vertex="1">
            <mxGeometry x="-1.1368683772161603e-13" y="122" width="153" height="65" as="geometry" />
          </mxCell>
        </UserObject>
        <mxCell id="QabODWYc-xTbxn0SH4q3-78" value="\(\theta_{L}^1\)" style="text;html=1;align=center;verticalAlign=middle;whiteSpace=wrap;rounded=0;fontSize=22;fontStyle=1" parent="QabODWYc-xTbxn0SH4q3-66" vertex="1">
          <mxGeometry x="214.9999999999999" y="-19.48176964119739" width="24" height="28" as="geometry" />
        </mxCell>
        <mxCell id="QabODWYc-xTbxn0SH4q3-79" value="" style="curved=1;endArrow=none;html=1;rounded=0;exitX=1;exitY=1;exitDx=0;exitDy=0;dashed=1;entryX=0.111;entryY=0.561;entryDx=0;entryDy=0;entryPerimeter=0;strokeColor=light-dark(#919191, #ff6ac1);strokeWidth=6;startFill=0;" parent="1" source="QabODWYc-xTbxn0SH4q3-7" target="QabODWYc-xTbxn0SH4q3-99" edge="1">
          <mxGeometry width="50" height="50" relative="1" as="geometry">
            <mxPoint x="864.7145453963983" y="842.993274758544" as="sourcePoint" />
            <mxPoint x="1174.7369378950596" y="591.0006620550428" as="targetPoint" />
            <Array as="points">
              <mxPoint x="956" y="744" />
              <mxPoint x="1010" y="708" />
              <mxPoint x="1046" y="690" />
            </Array>
          </mxGeometry>
        </mxCell>
        <mxCell id="QabODWYc-xTbxn0SH4q3-80" value="" style="group" parent="1" vertex="1" connectable="0">
          <mxGeometry x="627.6442082786186" y="888" width="121.85579172138131" height="223" as="geometry" />
        </mxCell>
        <mxCell id="QabODWYc-xTbxn0SH4q3-81" style="vsdxID=325;rotation=315;fillColor=none;gradientColor=none;strokeColor=none;strokeWidth=2;points=[];labelBackgroundColor=none;rounded=0;html=1;whiteSpace=wrap;" parent="QabODWYc-xTbxn0SH4q3-80" vertex="1">
          <mxGeometry x="12.105791721381308" y="157" width="35.000000000000014" height="39" as="geometry" />
        </mxCell>
        <mxCell id="QabODWYc-xTbxn0SH4q3-82" value="" style="group" parent="QabODWYc-xTbxn0SH4q3-81" vertex="1" connectable="0">
          <mxGeometry x="-10.71157153015622" y="10.67751576636988" width="46.42314306031247" height="18.64496846726044" as="geometry" />
        </mxCell>
        <mxCell id="QabODWYc-xTbxn0SH4q3-83" style="vsdxID=326;rotation=15;fillColor=#003232;gradientColor=none;shape=stencil(vVFBDgIhDHwNRxKE+IJ1/Ufjll0iLpuCLv5eSDWKevLgbaYznTatMF2cYEGhVUwUjri6IU3C7ITWbp6QXCpImF6YzgbCkcJ5HpgvUJ0VncKlJmTuU7VDqyuzLdM9O4EORaLcaIpa7yNoo75GqSwhuygpJEguzM1UDzSiLGOk9TDec1iKK+LyUf5lsf+tVcDzzNZ5z1961d/fUkr8UtPfAA==);strokeColor=#3c668c;points=[[0.5,0,0],[0.5,0.5,0],[0.5,0.5,0],[0.5,0.5,0],[1,0.5,0]];labelBackgroundColor=none;rounded=0;html=1;whiteSpace=wrap;container=0;" parent="QabODWYc-xTbxn0SH4q3-82" vertex="1">
          <mxGeometry x="26.71157153015623" y="8.32248423363022" width="19" height="8" as="geometry" />
        </mxCell>
        <mxCell id="QabODWYc-xTbxn0SH4q3-84" style="vsdxID=327;rotation=15;fillColor=#003232;gradientColor=none;shape=stencil(vVFBDgIhDHwNRxKE+IJ1/Ufjll0iLpuCLv5eSDWKevLgbaYznTatMF2cYEGhVUwUjri6IU3C7ITWbp6QXCpImF6YzgbCkcJ5HpgvUJ0VncKlJmTuU7VDqyuzLdM9O4EORaLcaIpa7yNoo75GqSwhuygpJEguzM1UDzSiLGOk9TDec1iKK+LyUf5lsf+tVcDzzNZ5z1961d/fUkr8UtPfAA==);strokeColor=#3c668c;points=[[0.5,0,0],[0.5,0.5,0],[0.5,0.5,0],[0.5,0.5,0],[1,0.5,0]];labelBackgroundColor=none;rounded=0;html=1;whiteSpace=wrap;container=0;" parent="QabODWYc-xTbxn0SH4q3-82" vertex="1">
          <mxGeometry x="0.7115715301562311" y="2.3224842336302203" width="19" height="8" as="geometry" />
        </mxCell>
        <mxCell id="QabODWYc-xTbxn0SH4q3-85" style="vsdxID=328;rotation=15;fillColor=#003232;gradientColor=none;shape=stencil(vVHLDsIgEPwajiQU4hfU+h8bu7RELM2CFv9eyMZYjCcP3mZ2Zh/ZEaaPM6wotIqJwgU3N6ZZmKPQ2i0zkksFCTMI09tAOFG4LSPzFaqzomu41wmZ+1Tt0OrB7MD0xE6gc5EoN5qi1vsa1Kmvo1SWkF2UFBIkF5ZmqweaUJY10nqYGiluiOuu3P182P/OKuD9Zuu855T2+mcspcSRmuEJ);strokeColor=#3c668c;points=[[0.5,0,0],[0.5,0.5,0],[0.5,0.5,0],[0.5,0.5,0],[1,0.5,0],[0.15,0.85,0],[0.85,0.85,0],[0.85,0.15,0],[0.15,0.15,0]];labelBackgroundColor=none;rounded=0;html=1;whiteSpace=wrap;container=0;" parent="QabODWYc-xTbxn0SH4q3-82" vertex="1">
          <mxGeometry x="18.71157153015623" y="3.3224842336302203" width="10" height="10" as="geometry" />
        </mxCell>
        <mxCell id="QabODWYc-xTbxn0SH4q3-86" style="vsdxID=322;rotation=15;fillColor=#00fefe;gradientColor=none;shape=stencil(lZPRcoMgEEW/hkeZZdERntPkP5gElamVDJrG/H2xUBQzk2ne2OWwFy67hB/GTl01QRgnZz/13VymjvAPgmiGTjsz+RXhR8IPjXW6dfY2XEJ8VQu5rL7s91JhDueAAi6HEB4hwQB+41OgzzcXcJZ4FvmYkZIyGVIzRigSMZSCchEJnhMxlDWt6peyuWYpqRS5JvPXYLkuA4os1y1LWuXSQKXcKit39rtuTlXrcDFw0SCskmURqqpUdFcT5kLNZiycndRk7JA9pleu1YXXK5petdnWeNf6ukmzV94IoELm/mxfjvm/Jne2HvI9899/WU+w57/G1CB/djzwuWf4SolcfdeKvRneaNz3aL9YJ6QxfR8GbLu/nyifCtPIjz8=);strokeColor=none;strokeWidth=0;spacingTop=-3;spacingBottom=-3;spacingLeft=-3;spacingRight=-3;points=[];labelBackgroundColor=none;rounded=0;html=1;whiteSpace=wrap;container=0;" parent="QabODWYc-xTbxn0SH4q3-80" vertex="1">
          <mxGeometry x="25.10579172138131" y="51" width="58" height="45.72" as="geometry" />
        </mxCell>
        <mxCell id="QabODWYc-xTbxn0SH4q3-87" style="vsdxID=323;rotation=15;fillColor=#00fefe;gradientColor=none;shape=stencil(nZBRDoQgDERP03+WHsHFe5iISyOCQdT19kIaIxq//Jtp3zTpAFaTaUYNUkwx+F6v1EYD+AUpyRkdKCYFqACrzgf9C352LfuxyWRWg1/yhT/nRE5IsZWuZtCSK8CPeI0e/hF+jV7AJM4PO7KWCyr390bSiNtEtQM=);strokeColor=none;strokeWidth=0;spacingTop=-3;spacingBottom=-3;spacingLeft=-3;spacingRight=-3;points=[];labelBackgroundColor=none;rounded=0;html=1;whiteSpace=wrap;container=0;" parent="QabODWYc-xTbxn0SH4q3-80" vertex="1">
          <mxGeometry x="9.105791721381308" y="94" width="58" height="78" as="geometry" />
        </mxCell>
        <mxCell id="QabODWYc-xTbxn0SH4q3-88" style="vsdxID=324;rotation=15;fillColor=#90aadb;gradientColor=none;shape=stencil(tZTbUsMgEIafhsswHJPmWut7MC1tGWPSIamNby+RhWSjrTqjd7B8sP8eWCIf+pM5WyJYP/ju2V7dfjgR+UiEcO3JejeEFZFbIh8OnbdH313afdyfzUROq5fudXphjPdqTXU13RLsLVrYx+4pwruLjzTP+KYEHEyMljxaRgFQSbkGCEyccvAyygwpBZBMUFktnRu/C6celGrKgfegNJhUehUerWmNgglIJQEpzOj6wneDGVzXLoNljfFHWwR/xaExR3TUX609L8z8Xno4Yzg5SlEtcXZmBgxlTdkqOTMj18xPPW/KnK9cl4rqzaou6VouSxBcY9+JAc+Naxf9E0rAUcZX9FqnoEpiobMEgRKfJC4DkZi4lRwskZGvO+JGl4nPXVZr1GUy1zTFTEX6Av/QZFggD79EYoV6ritAKgtCn/qv5N3ph2/mya/gsJjH1sE1TZx6y/P1mAumOCLl9h0=);strokeColor=none;strokeWidth=0;spacingTop=-3;spacingBottom=-3;spacingLeft=-3;spacingRight=-3;points=[];labelBackgroundColor=none;rounded=0;html=1;whiteSpace=wrap;container=0;" parent="QabODWYc-xTbxn0SH4q3-80" vertex="1">
          <mxGeometry x="29.10579172138131" y="110" width="21" height="30" as="geometry" />
        </mxCell>
        <UserObject label="" tags="连接线" id="QabODWYc-xTbxn0SH4q3-89">
          <mxCell style="vsdxID=307;edgeStyle=none;dashed=1;startArrow=open;endArrow=none;startSize=5;endSize=5;strokeColor=#000000;spacingTop=0;spacingBottom=0;spacingLeft=0;spacingRight=0;verticalAlign=middle;html=1;labelBackgroundColor=#FFFFFF;rounded=0;strokeWidth=2;" parent="QabODWYc-xTbxn0SH4q3-80" edge="1">
            <mxGeometry relative="1" as="geometry">
              <Array as="points" />
              <mxPoint x="39.995791721381295" as="sourcePoint" />
              <mxPoint x="39.46579172138132" y="125.86000000000013" as="targetPoint" />
            </mxGeometry>
          </mxCell>
        </UserObject>
        <UserObject label="" tags="连接线" id="QabODWYc-xTbxn0SH4q3-90">
          <mxCell style="vsdxID=357;edgeStyle=none;startArrow=none;endArrow=open;startSize=5;endSize=5;strokeColor=#000000;spacingTop=0;spacingBottom=0;spacingLeft=0;spacingRight=0;verticalAlign=middle;html=1;labelBackgroundColor=#ffffff;rounded=0;exitX=0.915;exitY=0.533;exitDx=0;exitDy=0;exitPerimeter=0;strokeWidth=2;" parent="QabODWYc-xTbxn0SH4q3-80" edge="1">
            <mxGeometry relative="1" as="geometry">
              <Array as="points" />
              <mxPoint x="39.76760444283906" y="126.2118745460948" as="sourcePoint" />
              <mxPoint x="69.9957917213813" y="10" as="targetPoint" />
            </mxGeometry>
          </mxCell>
        </UserObject>
        <UserObject label="" tags="连接线" id="QabODWYc-xTbxn0SH4q3-91">
          <mxCell style="vsdxID=357;edgeStyle=none;startArrow=none;endArrow=open;startSize=5;endSize=5;strokeColor=#000000;spacingTop=0;spacingBottom=0;spacingLeft=0;spacingRight=0;verticalAlign=middle;html=1;labelBackgroundColor=#ffffff;rounded=0;exitX=0.915;exitY=0.533;exitDx=0;exitDy=0;exitPerimeter=0;strokeWidth=2;" parent="QabODWYc-xTbxn0SH4q3-80" edge="1">
            <mxGeometry relative="1" as="geometry">
              <Array as="points" />
              <mxPoint x="38.76760444283906" y="125.2118745460948" as="sourcePoint" />
              <mxPoint x="119.9957917213813" y="150" as="targetPoint" />
            </mxGeometry>
          </mxCell>
        </UserObject>
        <mxCell id="QabODWYc-xTbxn0SH4q3-92" value="\(X_{E}\)" style="text;html=1;align=center;verticalAlign=middle;whiteSpace=wrap;rounded=0;fontSize=22;fontStyle=1" parent="QabODWYc-xTbxn0SH4q3-80" vertex="1">
          <mxGeometry x="-0.004208278618705208" y="-7" width="34" height="20" as="geometry" />
        </mxCell>
        <mxCell id="QabODWYc-xTbxn0SH4q3-93" value="\(X_{B}\)" style="text;html=1;align=center;verticalAlign=middle;whiteSpace=wrap;rounded=0;fontSize=22;fontStyle=1" parent="QabODWYc-xTbxn0SH4q3-80" vertex="1">
          <mxGeometry x="78.10579172138131" y="3" width="34" height="20" as="geometry" />
        </mxCell>
        <mxCell id="QabODWYc-xTbxn0SH4q3-94" value="\(\psi_{F}^2\)" style="text;html=1;align=center;verticalAlign=middle;whiteSpace=wrap;rounded=0;fontSize=22;fontStyle=1" parent="QabODWYc-xTbxn0SH4q3-80" vertex="1">
          <mxGeometry x="39.995791721381295" y="-29" width="34" height="20" as="geometry" />
        </mxCell>
        <mxCell id="QabODWYc-xTbxn0SH4q3-95" value="" style="group;rotation=-15;" parent="1" vertex="1" connectable="0">
          <mxGeometry x="1067.71" y="576.0017696411974" width="139.0435842870421" height="112.01296706855135" as="geometry" />
        </mxCell>
        <mxCell id="QabODWYc-xTbxn0SH4q3-96" style="vsdxID=272;rotation=45;fillColor=light-dark(#B9E0A5,#FF9281);shape=stencil(lZPRcoMgEEW/hkeZZdERntPkP5gElamVDJrG/H2xUBQzk2ne2OWwFy67hB/GTl01QRgnZz/13VymjvAPgmiGTjsz+RXhR8IPjXW6dfY2XEJ8VQu5rL7s91JhDueAAi6HEB4hwQB+41OgzzcXcJZ4FvmYkZIyGVIzRigSMZSCchEJnhMxlDWt6peyuWYpqRS5JvPXYLkuA4os1y1LWuXSQKXcKit39rtuTlXrcDFw0SCskmURqqpUdFcT5kLNZiycndRk7JA9pleu1YXXK5petdnWeNf6ukmzV94IoELm/mxfjvm/Jne2HvI9899/WU+w57/G1CB/djzwuWf4SolcfdeKvRneaNz3aL9YJ6QxfR8GbLu/nyifCtPIjz8=);strokeColor=light-dark(#B9E0A5,#FFACAC);strokeWidth=0;spacingTop=-3;spacingBottom=-3;spacingLeft=-3;spacingRight=-3;points=[];labelBackgroundColor=none;rounded=0;html=1;whiteSpace=wrap;fontColor=#ffffff;" parent="QabODWYc-xTbxn0SH4q3-95" vertex="1">
          <mxGeometry x="69.51" y="7.18" width="57.58" height="44.65" as="geometry" />
        </mxCell>
        <mxCell id="QabODWYc-xTbxn0SH4q3-97" style="vsdxID=273;rotation=45;fillColor=#B9E0A5;shape=stencil(nZBRDoQgDERP03+WHsHFe5iISyOCQdT19kIaIxq//Jtp3zTpAFaTaUYNUkwx+F6v1EYD+AUpyRkdKCYFqACrzgf9C352LfuxyWRWg1/yhT/nRE5IsZWuZtCSK8CPeI0e/hF+jV7AJM4PO7KWCyr390bSiNtEtQM=);strokeColor=#B9E0A5;strokeWidth=0;spacingTop=-3;spacingBottom=-3;spacingLeft=-3;spacingRight=-3;points=[];labelBackgroundColor=none;rounded=0;html=1;whiteSpace=wrap;fontColor=#ffffff;" parent="QabODWYc-xTbxn0SH4q3-95" vertex="1">
          <mxGeometry x="27" y="33" width="58" height="78" as="geometry" />
        </mxCell>
        <mxCell id="QabODWYc-xTbxn0SH4q3-98" style="vsdxID=274;rotation=45;fillColor=#ffe6cc;shape=stencil(tZTbUsMgEIafhsswHJPmWut7MC1tGWPSIamNby+RhWSjrTqjd7B8sP8eWCIf+pM5WyJYP/ju2V7dfjgR+UiEcO3JejeEFZFbIh8OnbdH313afdyfzUROq5fudXphjPdqTXU13RLsLVrYx+4pwruLjzTP+KYEHEyMljxaRgFQSbkGCEyccvAyygwpBZBMUFktnRu/C6celGrKgfegNJhUehUerWmNgglIJQEpzOj6wneDGVzXLoNljfFHWwR/xaExR3TUX609L8z8Xno4Yzg5SlEtcXZmBgxlTdkqOTMj18xPPW/KnK9cl4rqzaou6VouSxBcY9+JAc+Naxf9E0rAUcZX9FqnoEpiobMEgRKfJC4DkZi4lRwskZGvO+JGl4nPXVZr1GUy1zTFTEX6Av/QZFggD79EYoV6ritAKgtCn/qv5N3ph2/mya/gsJjH1sE1TZx6y/P1mAumOCLl9h0=);strokeColor=#d79b00;strokeWidth=0;spacingTop=-3;spacingBottom=-3;spacingLeft=-3;spacingRight=-3;points=[];labelBackgroundColor=none;rounded=0;html=1;whiteSpace=wrap;" parent="QabODWYc-xTbxn0SH4q3-95" vertex="1">
          <mxGeometry x="51" y="51" width="21" height="30" as="geometry" />
        </mxCell>
        <mxCell id="QabODWYc-xTbxn0SH4q3-99" style="vsdxID=275;fillColor=none;gradientColor=none;strokeColor=none;strokeWidth=2;points=[];labelBackgroundColor=none;rounded=0;html=1;whiteSpace=wrap;rotation=-15;" parent="QabODWYc-xTbxn0SH4q3-95" vertex="1">
          <mxGeometry x="10" y="83" width="26" height="39" as="geometry" />
        </mxCell>
        <mxCell id="QabODWYc-xTbxn0SH4q3-100" style="vsdxID=276;rotation=45;fillColor=#003232;gradientColor=none;shape=stencil(vVFBDgIhDHwNRxKE+IJ1/Ufjll0iLpuCLv5eSDWKevLgbaYznTatMF2cYEGhVUwUjri6IU3C7ITWbp6QXCpImF6YzgbCkcJ5HpgvUJ0VncKlJmTuU7VDqyuzLdM9O4EORaLcaIpa7yNoo75GqSwhuygpJEguzM1UDzSiLGOk9TDec1iKK+LyUf5lsf+tVcDzzNZ5z1961d/fUkr8UtPfAA==);strokeColor=#3c668c;points=[[0.5,0,0],[0.5,0.5,0],[0.5,0.5,0],[0.5,0.5,0],[1,0.5,0]];labelBackgroundColor=none;rounded=0;html=1;whiteSpace=wrap;" parent="QabODWYc-xTbxn0SH4q3-99" vertex="1">
          <mxGeometry x="13" y="25" width="19" height="8" as="geometry" />
        </mxCell>
        <mxCell id="QabODWYc-xTbxn0SH4q3-101" style="vsdxID=277;rotation=45;fillColor=#003232;gradientColor=none;shape=stencil(vVFBDgIhDHwNRxKE+IJ1/Ufjll0iLpuCLv5eSDWKevLgbaYznTatMF2cYEGhVUwUjri6IU3C7ITWbp6QXCpImF6YzgbCkcJ5HpgvUJ0VncKlJmTuU7VDqyuzLdM9O4EORaLcaIpa7yNoo75GqSwhuygpJEguzM1UDzSiLGOk9TDec1iKK+LyUf5lsf+tVcDzzNZ5z1961d/fUkr8UtPfAA==);strokeColor=#3c668c;points=[[0.5,0,0],[0.5,0.5,0],[0.5,0.5,0],[0.5,0.5,0],[1,0.5,0]];labelBackgroundColor=none;rounded=0;html=1;whiteSpace=wrap;" parent="QabODWYc-xTbxn0SH4q3-99" vertex="1">
          <mxGeometry x="-7" y="6" width="19" height="8" as="geometry" />
        </mxCell>
        <mxCell id="QabODWYc-xTbxn0SH4q3-102" style="vsdxID=278;rotation=45;fillColor=#003232;gradientColor=none;shape=stencil(vVHLDsIgEPwajiQU4hfU+h8bu7RELM2CFv9eyMZYjCcP3mZ2Zh/ZEaaPM6wotIqJwgU3N6ZZmKPQ2i0zkksFCTMI09tAOFG4LSPzFaqzomu41wmZ+1Tt0OrB7MD0xE6gc5EoN5qi1vsa1Kmvo1SWkF2UFBIkF5ZmqweaUJY10nqYGiluiOuu3P182P/OKuD9Zuu855T2+mcspcSRmuEJ);strokeColor=#3c668c;points=[[0.5,0,0],[0.5,0.5,0],[0.5,0.5,0],[0.5,0.5,0],[1,0.5,0],[0.15,0.85,0],[0.85,0.85,0],[0.85,0.15,0],[0.15,0.15,0]];labelBackgroundColor=none;rounded=0;html=1;whiteSpace=wrap;" parent="QabODWYc-xTbxn0SH4q3-99" vertex="1">
          <mxGeometry x="8" y="14" width="10" height="10" as="geometry" />
        </mxCell>
        <mxCell id="QabODWYc-xTbxn0SH4q3-103" value="\(d_{L}^2\)" style="text;html=1;align=center;verticalAlign=middle;whiteSpace=wrap;rounded=0;fontSize=22;fontStyle=1" parent="QabODWYc-xTbxn0SH4q3-95" vertex="1">
          <mxGeometry x="101.00000000000011" y="34.99000000000001" width="18" height="20.01" as="geometry" />
        </mxCell>
        <mxCell id="QabODWYc-xTbxn0SH4q3-104" value="" style="endArrow=none;startArrow=classic;html=1;rounded=0;startFill=0;strokeWidth=2;" parent="1" edge="1">
          <mxGeometry width="50" height="50" relative="1" as="geometry">
            <mxPoint x="1127.71" y="644" as="sourcePoint" />
            <mxPoint x="1245.71" y="533" as="targetPoint" />
          </mxGeometry>
        </mxCell>
        <mxCell id="QabODWYc-xTbxn0SH4q3-105" value="" style="endArrow=none;startArrow=classic;html=1;rounded=0;startFill=0;fontColor=#B9E0A5;strokeWidth=2;" parent="1" edge="1">
          <mxGeometry width="50" height="50" relative="1" as="geometry">
            <mxPoint x="1012.71" y="532" as="sourcePoint" />
            <mxPoint x="1245.71" y="532" as="targetPoint" />
          </mxGeometry>
        </mxCell>
        <mxCell id="QabODWYc-xTbxn0SH4q3-106" value="" style="group;rotation=-15;" parent="1" vertex="1" connectable="0">
          <mxGeometry x="1185.77" y="686.0017696411976" width="173.94000000000005" height="112.01296706855135" as="geometry" />
        </mxCell>
        <mxCell id="QabODWYc-xTbxn0SH4q3-107" style="vsdxID=272;rotation=45;fillColor=light-dark(#B9E0A5,#FF9281);shape=stencil(lZPRcoMgEEW/hkeZZdERntPkP5gElamVDJrG/H2xUBQzk2ne2OWwFy67hB/GTl01QRgnZz/13VymjvAPgmiGTjsz+RXhR8IPjXW6dfY2XEJ8VQu5rL7s91JhDueAAi6HEB4hwQB+41OgzzcXcJZ4FvmYkZIyGVIzRigSMZSCchEJnhMxlDWt6peyuWYpqRS5JvPXYLkuA4os1y1LWuXSQKXcKit39rtuTlXrcDFw0SCskmURqqpUdFcT5kLNZiycndRk7JA9pleu1YXXK5petdnWeNf6ukmzV94IoELm/mxfjvm/Jne2HvI9899/WU+w57/G1CB/djzwuWf4SolcfdeKvRneaNz3aL9YJ6QxfR8GbLu/nyifCtPIjz8=);strokeColor=light-dark(#B9E0A5,#FFACAC);strokeWidth=0;spacingTop=-3;spacingBottom=-3;spacingLeft=-3;spacingRight=-3;points=[];labelBackgroundColor=none;rounded=0;html=1;whiteSpace=wrap;fontColor=#ffffff;" parent="QabODWYc-xTbxn0SH4q3-106" vertex="1">
          <mxGeometry x="71" y="5" width="57.5" height="46" as="geometry" />
        </mxCell>
        <mxCell id="QabODWYc-xTbxn0SH4q3-108" style="vsdxID=273;rotation=45;fillColor=#B9E0A5;shape=stencil(nZBRDoQgDERP03+WHsHFe5iISyOCQdT19kIaIxq//Jtp3zTpAFaTaUYNUkwx+F6v1EYD+AUpyRkdKCYFqACrzgf9C352LfuxyWRWg1/yhT/nRE5IsZWuZtCSK8CPeI0e/hF+jV7AJM4PO7KWCyr390bSiNtEtQM=);strokeColor=#B9E0A5;strokeWidth=0;spacingTop=-3;spacingBottom=-3;spacingLeft=-3;spacingRight=-3;points=[];labelBackgroundColor=none;rounded=0;html=1;whiteSpace=wrap;fontColor=#ffffff;" parent="QabODWYc-xTbxn0SH4q3-106" vertex="1">
          <mxGeometry x="27" y="33" width="58" height="78" as="geometry" />
        </mxCell>
        <mxCell id="QabODWYc-xTbxn0SH4q3-109" style="vsdxID=274;rotation=45;fillColor=#ffe6cc;shape=stencil(tZTbUsMgEIafhsswHJPmWut7MC1tGWPSIamNby+RhWSjrTqjd7B8sP8eWCIf+pM5WyJYP/ju2V7dfjgR+UiEcO3JejeEFZFbIh8OnbdH313afdyfzUROq5fudXphjPdqTXU13RLsLVrYx+4pwruLjzTP+KYEHEyMljxaRgFQSbkGCEyccvAyygwpBZBMUFktnRu/C6celGrKgfegNJhUehUerWmNgglIJQEpzOj6wneDGVzXLoNljfFHWwR/xaExR3TUX609L8z8Xno4Yzg5SlEtcXZmBgxlTdkqOTMj18xPPW/KnK9cl4rqzaou6VouSxBcY9+JAc+Naxf9E0rAUcZX9FqnoEpiobMEgRKfJC4DkZi4lRwskZGvO+JGl4nPXVZr1GUy1zTFTEX6Av/QZFggD79EYoV6ritAKgtCn/qv5N3ph2/mya/gsJjH1sE1TZx6y/P1mAumOCLl9h0=);strokeColor=#d79b00;strokeWidth=0;spacingTop=-3;spacingBottom=-3;spacingLeft=-3;spacingRight=-3;points=[];labelBackgroundColor=none;rounded=0;html=1;whiteSpace=wrap;" parent="QabODWYc-xTbxn0SH4q3-106" vertex="1">
          <mxGeometry x="51" y="51" width="21" height="30" as="geometry" />
        </mxCell>
        <mxCell id="QabODWYc-xTbxn0SH4q3-110" style="vsdxID=275;fillColor=none;gradientColor=none;strokeColor=none;strokeWidth=2;points=[];labelBackgroundColor=none;rounded=0;html=1;whiteSpace=wrap;rotation=-15;" parent="QabODWYc-xTbxn0SH4q3-106" vertex="1">
          <mxGeometry x="10" y="83" width="26" height="39" as="geometry" />
        </mxCell>
        <mxCell id="QabODWYc-xTbxn0SH4q3-111" style="vsdxID=276;rotation=45;fillColor=#003232;gradientColor=none;shape=stencil(vVFBDgIhDHwNRxKE+IJ1/Ufjll0iLpuCLv5eSDWKevLgbaYznTatMF2cYEGhVUwUjri6IU3C7ITWbp6QXCpImF6YzgbCkcJ5HpgvUJ0VncKlJmTuU7VDqyuzLdM9O4EORaLcaIpa7yNoo75GqSwhuygpJEguzM1UDzSiLGOk9TDec1iKK+LyUf5lsf+tVcDzzNZ5z1961d/fUkr8UtPfAA==);strokeColor=#3c668c;points=[[0.5,0,0],[0.5,0.5,0],[0.5,0.5,0],[0.5,0.5,0],[1,0.5,0]];labelBackgroundColor=none;rounded=0;html=1;whiteSpace=wrap;" parent="QabODWYc-xTbxn0SH4q3-110" vertex="1">
          <mxGeometry x="13" y="25" width="19" height="8" as="geometry" />
        </mxCell>
        <mxCell id="QabODWYc-xTbxn0SH4q3-112" style="vsdxID=277;rotation=45;fillColor=#003232;gradientColor=none;shape=stencil(vVFBDgIhDHwNRxKE+IJ1/Ufjll0iLpuCLv5eSDWKevLgbaYznTatMF2cYEGhVUwUjri6IU3C7ITWbp6QXCpImF6YzgbCkcJ5HpgvUJ0VncKlJmTuU7VDqyuzLdM9O4EORaLcaIpa7yNoo75GqSwhuygpJEguzM1UDzSiLGOk9TDec1iKK+LyUf5lsf+tVcDzzNZ5z1961d/fUkr8UtPfAA==);strokeColor=#3c668c;points=[[0.5,0,0],[0.5,0.5,0],[0.5,0.5,0],[0.5,0.5,0],[1,0.5,0]];labelBackgroundColor=none;rounded=0;html=1;whiteSpace=wrap;" parent="QabODWYc-xTbxn0SH4q3-110" vertex="1">
          <mxGeometry x="-7" y="6" width="19" height="8" as="geometry" />
        </mxCell>
        <mxCell id="QabODWYc-xTbxn0SH4q3-113" style="vsdxID=278;rotation=45;fillColor=#003232;gradientColor=none;shape=stencil(vVHLDsIgEPwajiQU4hfU+h8bu7RELM2CFv9eyMZYjCcP3mZ2Zh/ZEaaPM6wotIqJwgU3N6ZZmKPQ2i0zkksFCTMI09tAOFG4LSPzFaqzomu41wmZ+1Tt0OrB7MD0xE6gc5EoN5qi1vsa1Kmvo1SWkF2UFBIkF5ZmqweaUJY10nqYGiluiOuu3P182P/OKuD9Zuu855T2+mcspcSRmuEJ);strokeColor=#3c668c;points=[[0.5,0,0],[0.5,0.5,0],[0.5,0.5,0],[0.5,0.5,0],[1,0.5,0],[0.15,0.85,0],[0.85,0.85,0],[0.85,0.15,0],[0.15,0.15,0]];labelBackgroundColor=none;rounded=0;html=1;whiteSpace=wrap;" parent="QabODWYc-xTbxn0SH4q3-110" vertex="1">
          <mxGeometry x="8" y="14" width="10" height="10" as="geometry" />
        </mxCell>
        <mxCell id="QabODWYc-xTbxn0SH4q3-114" value="" style="endArrow=classic;html=1;rounded=0;strokeWidth=2;" parent="1" edge="1">
          <mxGeometry width="50" height="50" relative="1" as="geometry">
            <mxPoint x="1245.71" y="533" as="sourcePoint" />
            <mxPoint x="1353.71" y="433" as="targetPoint" />
          </mxGeometry>
        </mxCell>
        <mxCell id="QabODWYc-xTbxn0SH4q3-115" value="" style="endArrow=classic;html=1;rounded=0;strokeWidth=2;" parent="1" edge="1">
          <mxGeometry width="50" height="50" relative="1" as="geometry">
            <mxPoint x="1245.71" y="537" as="sourcePoint" />
            <mxPoint x="1245.71" y="366" as="targetPoint" />
          </mxGeometry>
        </mxCell>
        <mxCell id="QabODWYc-xTbxn0SH4q3-116" value="\(X_{E}\)" style="text;html=1;align=center;verticalAlign=middle;whiteSpace=wrap;rounded=0;fontSize=22;fontStyle=1" parent="1" vertex="1">
          <mxGeometry x="1200.71" y="366" width="34" height="20" as="geometry" />
        </mxCell>
        <mxCell id="QabODWYc-xTbxn0SH4q3-117" value="" style="endArrow=none;startArrow=classic;html=1;rounded=0;startFill=0;strokeWidth=2;" parent="1" edge="1">
          <mxGeometry width="50" height="50" relative="1" as="geometry">
            <mxPoint x="1249.71" y="753" as="sourcePoint" />
            <mxPoint x="1245.71" y="537" as="targetPoint" />
          </mxGeometry>
        </mxCell>
        <mxCell id="QabODWYc-xTbxn0SH4q3-118" value="" style="group" parent="1" vertex="1" connectable="0">
          <mxGeometry x="1270.7089189304306" y="960.5300000000002" width="120.06216213913876" height="189.46610991211378" as="geometry" />
        </mxCell>
        <mxCell id="QabODWYc-xTbxn0SH4q3-119" style="vsdxID=347;rotation=255;fillColor=none;gradientColor=none;strokeColor=none;strokeWidth=2;points=[];labelBackgroundColor=none;rounded=0;html=1;whiteSpace=wrap;" parent="QabODWYc-xTbxn0SH4q3-118" vertex="1">
          <mxGeometry x="-3.9689189304306183" y="71" width="128" height="90" as="geometry" />
        </mxCell>
        <mxCell id="QabODWYc-xTbxn0SH4q3-120" style="vsdxID=348;rotation=315;fillColor=#00fefe;gradientColor=none;shape=stencil(lZPRcoMgEEW/hkeZZdERntPkP5gElamVDJrG/H2xUBQzk2ne2OWwFy67hB/GTl01QRgnZz/13VymjvAPgmiGTjsz+RXhR8IPjXW6dfY2XEJ8VQu5rL7s91JhDueAAi6HEB4hwQB+41OgzzcXcJZ4FvmYkZIyGVIzRigSMZSCchEJnhMxlDWt6peyuWYpqRS5JvPXYLkuA4os1y1LWuXSQKXcKit39rtuTlXrcDFw0SCskmURqqpUdFcT5kLNZiycndRk7JA9pleu1YXXK5petdnWeNf6ukmzV94IoELm/mxfjvm/Jne2HvI9899/WU+w57/G1CB/djzwuWf4SolcfdeKvRneaNz3aL9YJ6QxfR8GbLu/nyifCtPIjz8=);strokeColor=none;strokeWidth=0;spacingTop=-3;spacingBottom=-3;spacingLeft=-3;spacingRight=-3;points=[];labelBackgroundColor=none;rounded=0;html=1;whiteSpace=wrap;" parent="QabODWYc-xTbxn0SH4q3-119" vertex="1">
          <mxGeometry x="-6" y="-9" width="58" height="46" as="geometry" />
        </mxCell>
        <mxCell id="QabODWYc-xTbxn0SH4q3-121" style="vsdxID=349;rotation=315;fillColor=#00fefe;gradientColor=none;shape=stencil(nZBRDoQgDERP03+WHsHFe5iISyOCQdT19kIaIxq//Jtp3zTpAFaTaUYNUkwx+F6v1EYD+AUpyRkdKCYFqACrzgf9C352LfuxyWRWg1/yhT/nRE5IsZWuZtCSK8CPeI0e/hF+jV7AJM4PO7KWCyr390bSiNtEtQM=);strokeColor=none;strokeWidth=0;spacingTop=-3;spacingBottom=-3;spacingLeft=-3;spacingRight=-3;points=[];labelBackgroundColor=none;rounded=0;html=1;whiteSpace=wrap;" parent="QabODWYc-xTbxn0SH4q3-119" vertex="1">
          <mxGeometry x="38" y="18" width="58" height="78" as="geometry" />
        </mxCell>
        <mxCell id="QabODWYc-xTbxn0SH4q3-122" style="vsdxID=350;rotation=315;fillColor=#90aadb;gradientColor=none;shape=stencil(tZTbUsMgEIafhsswHJPmWut7MC1tGWPSIamNby+RhWSjrTqjd7B8sP8eWCIf+pM5WyJYP/ju2V7dfjgR+UiEcO3JejeEFZFbIh8OnbdH313afdyfzUROq5fudXphjPdqTXU13RLsLVrYx+4pwruLjzTP+KYEHEyMljxaRgFQSbkGCEyccvAyygwpBZBMUFktnRu/C6celGrKgfegNJhUehUerWmNgglIJQEpzOj6wneDGVzXLoNljfFHWwR/xaExR3TUX609L8z8Xno4Yzg5SlEtcXZmBgxlTdkqOTMj18xPPW/KnK9cl4rqzaou6VouSxBcY9+JAc+Naxf9E0rAUcZX9FqnoEpiobMEgRKfJC4DkZi4lRwskZGvO+JGl4nPXVZr1GUy1zTFTEX6Av/QZFggD79EYoV6ritAKgtCn/qv5N3ph2/mya/gsJjH1sE1TZx6y/P1mAumOCLl9h0=);strokeColor=none;strokeWidth=0;spacingTop=-3;spacingBottom=-3;spacingLeft=-3;spacingRight=-3;points=[];labelBackgroundColor=none;rounded=0;html=1;whiteSpace=wrap;" parent="QabODWYc-xTbxn0SH4q3-119" vertex="1">
          <mxGeometry x="51" y="35" width="21" height="30" as="geometry" />
        </mxCell>
        <mxCell id="QabODWYc-xTbxn0SH4q3-123" style="vsdxID=351;rotation=255;fillColor=none;gradientColor=none;strokeColor=none;strokeWidth=2;points=[];labelBackgroundColor=none;rounded=0;html=1;whiteSpace=wrap;" parent="QabODWYc-xTbxn0SH4q3-119" vertex="1">
          <mxGeometry x="85" y="69" width="26" height="39" as="geometry" />
        </mxCell>
        <mxCell id="QabODWYc-xTbxn0SH4q3-124" style="vsdxID=352;rotation=315;fillColor=#003232;gradientColor=none;shape=stencil(vVFBDgIhDHwNRxKE+IJ1/Ufjll0iLpuCLv5eSDWKevLgbaYznTatMF2cYEGhVUwUjri6IU3C7ITWbp6QXCpImF6YzgbCkcJ5HpgvUJ0VncKlJmTuU7VDqyuzLdM9O4EORaLcaIpa7yNoo75GqSwhuygpJEguzM1UDzSiLGOk9TDec1iKK+LyUf5lsf+tVcDzzNZ5z1961d/fUkr8UtPfAA==);strokeColor=#3c668c;points=[[0.5,0,0],[0.5,0.5,0],[0.5,0.5,0],[0.5,0.5,0],[1,0.5,0]];labelBackgroundColor=none;rounded=0;html=1;whiteSpace=wrap;" parent="QabODWYc-xTbxn0SH4q3-123" vertex="1">
          <mxGeometry x="13" y="6" width="19" height="8" as="geometry" />
        </mxCell>
        <mxCell id="QabODWYc-xTbxn0SH4q3-125" style="vsdxID=353;rotation=315;fillColor=#003232;gradientColor=none;shape=stencil(vVFBDgIhDHwNRxKE+IJ1/Ufjll0iLpuCLv5eSDWKevLgbaYznTatMF2cYEGhVUwUjri6IU3C7ITWbp6QXCpImF6YzgbCkcJ5HpgvUJ0VncKlJmTuU7VDqyuzLdM9O4EORaLcaIpa7yNoo75GqSwhuygpJEguzM1UDzSiLGOk9TDec1iKK+LyUf5lsf+tVcDzzNZ5z1961d/fUkr8UtPfAA==);strokeColor=#3c668c;points=[[0.5,0,0],[0.5,0.5,0],[0.5,0.5,0],[0.5,0.5,0],[1,0.5,0]];labelBackgroundColor=none;rounded=0;html=1;whiteSpace=wrap;" parent="QabODWYc-xTbxn0SH4q3-123" vertex="1">
          <mxGeometry x="-6" y="26" width="19" height="8" as="geometry" />
        </mxCell>
        <mxCell id="QabODWYc-xTbxn0SH4q3-126" style="vsdxID=354;rotation=315;fillColor=#003232;gradientColor=none;shape=stencil(vVHLDsIgEPwajiQU4hfU+h8bu7RELM2CFv9eyMZYjCcP3mZ2Zh/ZEaaPM6wotIqJwgU3N6ZZmKPQ2i0zkksFCTMI09tAOFG4LSPzFaqzomu41wmZ+1Tt0OrB7MD0xE6gc5EoN5qi1vsa1Kmvo1SWkF2UFBIkF5ZmqweaUJY10nqYGiluiOuu3P182P/OKuD9Zuu855T2+mcspcSRmuEJ);strokeColor=#3c668c;points=[[0.5,0,0],[0.5,0.5,0],[0.5,0.5,0],[0.5,0.5,0],[1,0.5,0],[0.15,0.85,0],[0.85,0.85,0],[0.85,0.15,0],[0.15,0.15,0]];labelBackgroundColor=none;rounded=0;html=1;whiteSpace=wrap;" parent="QabODWYc-xTbxn0SH4q3-123" vertex="1">
          <mxGeometry x="8" y="15" width="10" height="10" as="geometry" />
        </mxCell>
        <mxCell id="QabODWYc-xTbxn0SH4q3-127" value="\(\psi_{F}^3\)" style="text;html=1;align=center;verticalAlign=middle;whiteSpace=wrap;rounded=0;fontSize=22;fontStyle=1" parent="QabODWYc-xTbxn0SH4q3-119" vertex="1">
          <mxGeometry x="27.970000000000027" y="-11" width="34" height="20" as="geometry" />
        </mxCell>
        <mxCell id="QabODWYc-xTbxn0SH4q3-128" style="vsdxID=355;rotation=278;fillColor=none;gradientColor=none;strokeColor=none;strokeWidth=2;points=[];labelBackgroundColor=none;rounded=0;html=1;whiteSpace=wrap;" parent="QabODWYc-xTbxn0SH4q3-118" vertex="1">
          <mxGeometry x="30.03108106956938" y="57" width="46" height="86" as="geometry" />
        </mxCell>
        <UserObject label="" tags="连接线" id="QabODWYc-xTbxn0SH4q3-129">
          <mxCell style="vsdxID=356;edgeStyle=none;startArrow=none;endArrow=open;startSize=5;endSize=5;strokeColor=#000000;spacingTop=0;spacingBottom=0;spacingLeft=0;spacingRight=0;verticalAlign=middle;html=1;labelBackgroundColor=#ffffff;rounded=0;" parent="QabODWYc-xTbxn0SH4q3-128" edge="1">
            <mxGeometry relative="1" as="geometry">
              <Array as="points" />
              <mxPoint x="30" y="67" as="sourcePoint" />
              <mxPoint x="-65" y="-24" as="targetPoint" />
            </mxGeometry>
          </mxCell>
        </UserObject>
        <UserObject label="" tags="连接线" id="QabODWYc-xTbxn0SH4q3-130">
          <mxCell style="vsdxID=357;edgeStyle=none;startArrow=none;endArrow=open;startSize=5;endSize=5;strokeColor=#000000;spacingTop=0;spacingBottom=0;spacingLeft=0;spacingRight=0;verticalAlign=middle;html=1;labelBackgroundColor=#ffffff;rounded=0;" parent="QabODWYc-xTbxn0SH4q3-128" edge="1">
            <mxGeometry relative="1" as="geometry">
              <Array as="points" />
              <mxPoint x="30" y="67" as="sourcePoint" />
              <mxPoint x="93" y="13" as="targetPoint" />
            </mxGeometry>
          </mxCell>
        </UserObject>
        <mxCell id="QabODWYc-xTbxn0SH4q3-131" value="" style="verticalLabelPosition=bottom;verticalAlign=top;html=1;shape=mxgraph.basic.arc;startAngle=0.934029181964259;endAngle=0.2658627587152768;rotation=-45;" parent="QabODWYc-xTbxn0SH4q3-128" vertex="1">
          <mxGeometry x="-1.62" y="26.91" width="37.8" height="35.5" as="geometry" />
        </mxCell>
        <UserObject label="" tags="连接线" id="QabODWYc-xTbxn0SH4q3-132">
          <mxCell style="vsdxID=358;edgeStyle=none;dashed=1;startArrow=open;endArrow=none;startSize=5;endSize=5;strokeColor=#000000;spacingTop=0;spacingBottom=0;spacingLeft=0;spacingRight=0;verticalAlign=middle;html=1;labelBackgroundColor=#FFFFFF;rounded=0;" parent="QabODWYc-xTbxn0SH4q3-118" edge="1">
            <mxGeometry relative="1" as="geometry">
              <Array as="points" />
              <mxPoint x="62.03108106956938" as="sourcePoint" />
              <mxPoint x="61.03108106956938" y="124" as="targetPoint" />
            </mxGeometry>
          </mxCell>
        </UserObject>
        <mxCell id="QabODWYc-xTbxn0SH4q3-133" value="\(X_{E}\)" style="text;html=1;align=center;verticalAlign=middle;whiteSpace=wrap;rounded=0;fontSize=22;fontStyle=1" parent="QabODWYc-xTbxn0SH4q3-118" vertex="1">
          <mxGeometry x="72.00108106956941" y="-11" width="34" height="20" as="geometry" />
        </mxCell>
        <mxCell id="QabODWYc-xTbxn0SH4q3-134" value="\(d_{L}^3\)" style="text;html=1;align=center;verticalAlign=middle;whiteSpace=wrap;rounded=0;fontSize=22;fontStyle=1" parent="1" vertex="1">
          <mxGeometry x="1257.71" y="642.0017696411974" width="18" height="20.01" as="geometry" />
        </mxCell>
        <mxCell id="QabODWYc-xTbxn0SH4q3-135" value="" style="endArrow=classic;html=1;rounded=0;edgeStyle=orthogonalEdgeStyle;curved=1;targetPerimeterSpacing=14;endSize=4;endFill=1;exitX=1;exitY=0.75;exitDx=0;exitDy=0;entryX=-0.045;entryY=0.658;entryDx=0;entryDy=0;entryPerimeter=0;strokeWidth=1;" parent="1" source="QabODWYc-xTbxn0SH4q3-74" target="QabODWYc-xTbxn0SH4q3-59" edge="1">
          <mxGeometry width="50" height="50" relative="1" as="geometry">
            <mxPoint x="1221.708" y="523.0174296411974" as="sourcePoint" />
            <mxPoint x="1257.71" y="543" as="targetPoint" />
            <Array as="points">
              <mxPoint x="1182.71" y="519" />
              <mxPoint x="1215.71" y="519" />
              <mxPoint x="1215.71" y="523" />
            </Array>
          </mxGeometry>
        </mxCell>
        <mxCell id="QabODWYc-xTbxn0SH4q3-136" value="" style="group" parent="1" vertex="1" connectable="0">
          <mxGeometry x="529" y="357" width="151" height="201" as="geometry" />
        </mxCell>
        <UserObject label="" tags="连接线" id="QabODWYc-xTbxn0SH4q3-137">
          <mxCell style="vsdxID=308;edgeStyle=none;startArrow=none;endArrow=none;startSize=5;endSize=5;strokeColor=#000000;spacingTop=0;spacingBottom=0;spacingLeft=0;spacingRight=0;verticalAlign=middle;html=1;labelBackgroundColor=#ffffff;rounded=0;jumpStyle=arc;" parent="QabODWYc-xTbxn0SH4q3-136" edge="1">
            <mxGeometry relative="1" as="geometry">
              <Array as="points" />
              <mxPoint x="102" y="105" as="sourcePoint" />
              <mxPoint x="101" y="93" as="targetPoint" />
            </mxGeometry>
          </mxCell>
        </UserObject>
        <mxCell id="QabODWYc-xTbxn0SH4q3-138" style="vsdxID=297;rotation=167;fillColor=#00fefe;gradientColor=none;shape=stencil(lZPRcoMgEEW/hkeZZdERntPkP5gElamVDJrG/H2xUBQzk2ne2OWwFy67hB/GTl01QRgnZz/13VymjvAPgmiGTjsz+RXhR8IPjXW6dfY2XEJ8VQu5rL7s91JhDueAAi6HEB4hwQB+41OgzzcXcJZ4FvmYkZIyGVIzRigSMZSCchEJnhMxlDWt6peyuWYpqRS5JvPXYLkuA4os1y1LWuXSQKXcKit39rtuTlXrcDFw0SCskmURqqpUdFcT5kLNZiycndRk7JA9pleu1YXXK5petdnWeNf6ukmzV94IoELm/mxfjvm/Jne2HvI9899/WU+w57/G1CB/djzwuWf4SolcfdeKvRneaNz3aL9YJ6QxfR8GbLu/nyifCtPIjz8=);strokeColor=none;strokeWidth=0;spacingTop=-3;spacingBottom=-3;spacingLeft=-3;spacingRight=-3;points=[];labelBackgroundColor=none;rounded=0;html=1;whiteSpace=wrap;container=0;" parent="QabODWYc-xTbxn0SH4q3-136" vertex="1">
          <mxGeometry x="82" y="123" width="58" height="46" as="geometry" />
        </mxCell>
        <mxCell id="QabODWYc-xTbxn0SH4q3-139" style="vsdxID=298;rotation=167;fillColor=#00fefe;gradientColor=none;shape=stencil(nZBRDoQgDERP03+WHsHFe5iISyOCQdT19kIaIxq//Jtp3zTpAFaTaUYNUkwx+F6v1EYD+AUpyRkdKCYFqACrzgf9C352LfuxyWRWg1/yhT/nRE5IsZWuZtCSK8CPeI0e/hF+jV7AJM4PO7KWCyr390bSiNtEtQM=);strokeColor=none;strokeWidth=0;spacingTop=-3;spacingBottom=-3;spacingLeft=-3;spacingRight=-3;points=[];labelBackgroundColor=none;rounded=0;html=1;whiteSpace=wrap;container=0;" parent="QabODWYc-xTbxn0SH4q3-136" vertex="1">
          <mxGeometry x="68" y="47" width="58" height="78" as="geometry" />
        </mxCell>
        <mxCell id="QabODWYc-xTbxn0SH4q3-140" style="vsdxID=299;rotation=167;fillColor=#90aadb;gradientColor=none;shape=stencil(tZTbUsMgEIafhsswHJPmWut7MC1tGWPSIamNby+RhWSjrTqjd7B8sP8eWCIf+pM5WyJYP/ju2V7dfjgR+UiEcO3JejeEFZFbIh8OnbdH313afdyfzUROq5fudXphjPdqTXU13RLsLVrYx+4pwruLjzTP+KYEHEyMljxaRgFQSbkGCEyccvAyygwpBZBMUFktnRu/C6celGrKgfegNJhUehUerWmNgglIJQEpzOj6wneDGVzXLoNljfFHWwR/xaExR3TUX609L8z8Xno4Yzg5SlEtcXZmBgxlTdkqOTMj18xPPW/KnK9cl4rqzaou6VouSxBcY9+JAc+Naxf9E0rAUcZX9FqnoEpiobMEgRKfJC4DkZi4lRwskZGvO+JGl4nPXVZr1GUy1zTFTEX6Av/QZFggD79EYoV6ritAKgtCn/qv5N3ph2/mya/gsJjH1sE1TZx6y/P1mAumOCLl9h0=);strokeColor=none;strokeWidth=0;spacingTop=-3;spacingBottom=-3;spacingLeft=-3;spacingRight=-3;points=[];labelBackgroundColor=none;rounded=0;html=1;whiteSpace=wrap;container=0;" parent="QabODWYc-xTbxn0SH4q3-136" vertex="1">
          <mxGeometry x="88" y="79" width="21" height="30" as="geometry" />
        </mxCell>
        <mxCell id="QabODWYc-xTbxn0SH4q3-141" style="vsdxID=301;rotation=167;fillColor=#003232;gradientColor=none;shape=stencil(vVFBDgIhDHwNRxKE+IJ1/Ufjll0iLpuCLv5eSDWKevLgbaYznTatMF2cYEGhVUwUjri6IU3C7ITWbp6QXCpImF6YzgbCkcJ5HpgvUJ0VncKlJmTuU7VDqyuzLdM9O4EORaLcaIpa7yNoo75GqSwhuygpJEguzM1UDzSiLGOk9TDec1iKK+LyUf5lsf+tVcDzzNZ5z1961d/fUkr8UtPfAA==);strokeColor=#3c668c;points=[[0.5,0,0],[0.5,0.5,0],[0.5,0.5,0],[0.5,0.5,0],[1,0.5,0]];labelBackgroundColor=none;rounded=0;html=1;whiteSpace=wrap;container=0;" parent="QabODWYc-xTbxn0SH4q3-136" vertex="1">
          <mxGeometry x="65" y="40" width="19" height="8" as="geometry" />
        </mxCell>
        <mxCell id="QabODWYc-xTbxn0SH4q3-142" style="vsdxID=302;rotation=167;fillColor=#003232;gradientColor=none;shape=stencil(vVFBDgIhDHwNRxKE+IJ1/Ufjll0iLpuCLv5eSDWKevLgbaYznTatMF2cYEGhVUwUjri6IU3C7ITWbp6QXCpImF6YzgbCkcJ5HpgvUJ0VncKlJmTuU7VDqyuzLdM9O4EORaLcaIpa7yNoo75GqSwhuygpJEguzM1UDzSiLGOk9TDec1iKK+LyUf5lsf+tVcDzzNZ5z1961d/fUkr8UtPfAA==);strokeColor=#3c668c;points=[[0.5,0,0],[0.5,0.5,0],[0.5,0.5,0],[0.5,0.5,0],[1,0.5,0]];labelBackgroundColor=none;rounded=0;html=1;whiteSpace=wrap;container=0;" parent="QabODWYc-xTbxn0SH4q3-136" vertex="1">
          <mxGeometry x="91" y="34" width="19" height="8" as="geometry" />
        </mxCell>
        <mxCell id="QabODWYc-xTbxn0SH4q3-143" style="vsdxID=303;rotation=167;fillColor=#003232;gradientColor=none;shape=stencil(vVHLDsIgEPwajiQU4hfU+h8bu7RELM2CFv9eyMZYjCcP3mZ2Zh/ZEaaPM6wotIqJwgU3N6ZZmKPQ2i0zkksFCTMI09tAOFG4LSPzFaqzomu41wmZ+1Tt0OrB7MD0xE6gc5EoN5qi1vsa1Kmvo1SWkF2UFBIkF5ZmqweaUJY10nqYGiluiOuu3P182P/OKuD9Zuu855T2+mcspcSRmuEJ);strokeColor=#3c668c;points=[[0.5,0,0],[0.5,0.5,0],[0.5,0.5,0],[0.5,0.5,0],[1,0.5,0],[0.15,0.85,0],[0.85,0.85,0],[0.85,0.15,0],[0.15,0.15,0]];labelBackgroundColor=none;rounded=0;html=1;whiteSpace=wrap;container=0;" parent="QabODWYc-xTbxn0SH4q3-136" vertex="1">
          <mxGeometry x="82" y="37" width="10" height="10" as="geometry" />
        </mxCell>
        <UserObject label="" tags="连接线" id="QabODWYc-xTbxn0SH4q3-144">
          <mxCell style="vsdxID=305;edgeStyle=none;startArrow=none;endArrow=open;startSize=5;endSize=5;strokeColor=#000000;spacingTop=0;spacingBottom=0;spacingLeft=0;spacingRight=0;verticalAlign=middle;html=1;labelBackgroundColor=#ffffff;rounded=0;strokeWidth=2;" parent="QabODWYc-xTbxn0SH4q3-136" edge="1">
            <mxGeometry relative="1" as="geometry">
              <Array as="points" />
              <mxPoint x="100" y="96" as="sourcePoint" />
              <mxPoint x="124" y="201" as="targetPoint" />
            </mxGeometry>
          </mxCell>
        </UserObject>
        <UserObject label="" tags="连接线" id="QabODWYc-xTbxn0SH4q3-145">
          <mxCell style="vsdxID=306;edgeStyle=none;startArrow=none;endArrow=open;startSize=5;endSize=5;strokeColor=#000000;spacingTop=0;spacingBottom=0;spacingLeft=0;spacingRight=0;verticalAlign=middle;html=1;labelBackgroundColor=#ffffff;rounded=0;strokeWidth=2;" parent="QabODWYc-xTbxn0SH4q3-136" edge="1">
            <mxGeometry relative="1" as="geometry">
              <Array as="points" />
              <mxPoint x="100" y="96" as="sourcePoint" />
              <mxPoint x="13" y="120" as="targetPoint" />
            </mxGeometry>
          </mxCell>
        </UserObject>
        <UserObject label="" tags="连接线" id="QabODWYc-xTbxn0SH4q3-146">
          <mxCell style="vsdxID=307;edgeStyle=none;dashed=1;startArrow=open;endArrow=none;startSize=5;endSize=5;strokeColor=#000000;spacingTop=0;spacingBottom=0;spacingLeft=0;spacingRight=0;verticalAlign=middle;html=1;labelBackgroundColor=#FFFFFF;rounded=0;strokeWidth=2;" parent="QabODWYc-xTbxn0SH4q3-136" edge="1">
            <mxGeometry relative="1" as="geometry">
              <Array as="points" />
              <mxPoint x="100" as="sourcePoint" />
              <mxPoint x="100" y="94" as="targetPoint" />
            </mxGeometry>
          </mxCell>
        </UserObject>
        <mxCell id="QabODWYc-xTbxn0SH4q3-147" value="\(Y_{B}\)" style="text;html=1;align=center;verticalAlign=middle;whiteSpace=wrap;rounded=0;fontSize=22;fontStyle=1" parent="QabODWYc-xTbxn0SH4q3-136" vertex="1">
          <mxGeometry y="130" width="41" height="20" as="geometry" />
        </mxCell>
        <mxCell id="QabODWYc-xTbxn0SH4q3-148" value="\(X_{E}\)" style="text;html=1;align=center;verticalAlign=middle;whiteSpace=wrap;rounded=0;fontSize=22;fontStyle=1" parent="QabODWYc-xTbxn0SH4q3-136" vertex="1">
          <mxGeometry x="107" width="34" height="20" as="geometry" />
        </mxCell>
        <mxCell id="QabODWYc-xTbxn0SH4q3-149" value="\(X_{B}\)" style="text;html=1;align=center;verticalAlign=middle;whiteSpace=wrap;rounded=0;fontSize=22;fontStyle=1" parent="QabODWYc-xTbxn0SH4q3-136" vertex="1">
          <mxGeometry x="80.5" y="181" width="34" height="20" as="geometry" />
        </mxCell>
        <mxCell id="QabODWYc-xTbxn0SH4q3-150" value="" style="verticalLabelPosition=bottom;verticalAlign=top;html=1;shape=mxgraph.basic.arc;startAngle=0.9505666974335267;endAngle=0.5024483444349503;" parent="QabODWYc-xTbxn0SH4q3-136" vertex="1">
          <mxGeometry x="91" y="85" width="26" height="24" as="geometry" />
        </mxCell>
        <mxCell id="QabODWYc-xTbxn0SH4q3-151" value="\(\psi_{F}^1\)" style="text;html=1;align=center;verticalAlign=middle;whiteSpace=wrap;rounded=0;fontSize=22;fontStyle=1" parent="QabODWYc-xTbxn0SH4q3-136" vertex="1">
          <mxGeometry x="119" y="81" width="34" height="20" as="geometry" />
        </mxCell>
        <mxCell id="QabODWYc-xTbxn0SH4q3-152" value="" style="verticalLabelPosition=bottom;verticalAlign=top;html=1;shape=mxgraph.basic.arc;startAngle=0.9505666974335267;endAngle=0.11830269514830213;" parent="1" vertex="1">
          <mxGeometry x="654.75" y="933" width="39" height="39" as="geometry" />
        </mxCell>
        <mxCell id="QabODWYc-xTbxn0SH4q3-153" value="\(\psi_{L}^0\)" style="text;html=1;align=center;verticalAlign=middle;whiteSpace=wrap;rounded=0;fontSize=22;fontStyle=1" parent="1" vertex="1">
          <mxGeometry x="1263.71" y="438" width="34" height="20" as="geometry" />
        </mxCell>
        <UserObject label="&lt;div&gt;&lt;font style=&quot;font-family: &amp;quot;Times New Roman&amp;quot;; direction: ltr; letter-spacing: 0px; line-height: 120%; opacity: 1;&quot;&gt;&lt;i&gt;Virtual Leader Vessel 3&lt;br&gt;&lt;/i&gt;&lt;/font&gt;&lt;/div&gt;&lt;div&gt;&lt;font style=&quot;font-family: &amp;quot;Times New Roman&amp;quot;; direction: ltr; letter-spacing: 0px; line-height: 120%; opacity: 1;&quot;&gt;&lt;i&gt;&lt;br&gt;&lt;/i&gt;&lt;/font&gt;&lt;/div&gt;&lt;div&gt;&lt;font style=&quot;font-family: &amp;quot;Times New Roman&amp;quot;; direction: ltr; letter-spacing: 0px; line-height: 120%; opacity: 1;&quot;&gt;&lt;i&gt;&lt;br&gt;&lt;/i&gt;&lt;/font&gt;&lt;/div&gt;&lt;div&gt;&lt;font style=&quot;font-family: &amp;quot;Times New Roman&amp;quot;; direction: ltr; letter-spacing: 0px; line-height: 120%; opacity: 1;&quot;&gt;&lt;i&gt;&lt;br&gt;&lt;/i&gt;&lt;/font&gt;&lt;/div&gt;" tags="背景" id="QabODWYc-xTbxn0SH4q3-154">
          <mxCell style="verticalAlign=middle;align=center;overflow=width;vsdxID=248;fillColor=none;gradientColor=none;shape=stencil(nZBLDoAgDERP0z3SIyjew0SURgSD+Lu9kMZoXLhwN9O+tukAlrNpJg1SzDH4QW/URgNYgZTkjA4UkwJUgGXng+6DX1zLfmoymdXo17xh5zmRJ6Q42BWCfc2oJfdAr+Yv+AP9Cb7OJ3H/2JG1HNGz/84klThPVCc=);strokeColor=none;strokeWidth=2;points=[];labelBackgroundColor=none;rounded=0;html=1;whiteSpace=wrap;fontSize=25;fontColor=light-dark(#96d35f, #ededed);" parent="1" vertex="1">
            <mxGeometry x="1225.71" y="798.0100000000002" width="185" height="54" as="geometry" />
          </mxCell>
        </UserObject>
        <UserObject label="&lt;div&gt;&lt;font style=&quot;font-family: &amp;quot;Times New Roman&amp;quot;; direction: ltr; letter-spacing: 0px; line-height: 120%; opacity: 1;&quot;&gt;&lt;i&gt;Virtual Leader Vessel 2&lt;br&gt;&lt;/i&gt;&lt;/font&gt;&lt;/div&gt;&lt;div&gt;&lt;font style=&quot;font-family: &amp;quot;Times New Roman&amp;quot;; direction: ltr; letter-spacing: 0px; line-height: 120%; opacity: 1;&quot;&gt;&lt;i&gt;&lt;br&gt;&lt;/i&gt;&lt;/font&gt;&lt;/div&gt;&lt;div&gt;&lt;font style=&quot;font-family: &amp;quot;Times New Roman&amp;quot;; direction: ltr; letter-spacing: 0px; line-height: 120%; opacity: 1;&quot;&gt;&lt;i&gt;&lt;br&gt;&lt;/i&gt;&lt;/font&gt;&lt;/div&gt;" tags="背景" id="QabODWYc-xTbxn0SH4q3-155">
          <mxCell style="verticalAlign=middle;align=center;overflow=width;vsdxID=248;fillColor=none;gradientColor=none;shape=stencil(nZBLDoAgDERP0z3SIyjew0SURgSD+Lu9kMZoXLhwN9O+tukAlrNpJg1SzDH4QW/URgNYgZTkjA4UkwJUgGXng+6DX1zLfmoymdXo17xh5zmRJ6Q42BWCfc2oJfdAr+Yv+AP9Cb7OJ3H/2JG1HNGz/84klThPVCc=);strokeColor=none;strokeWidth=2;points=[];labelBackgroundColor=none;rounded=0;html=1;whiteSpace=wrap;fontSize=25;fontColor=light-dark(#96d35f, #ededed);" parent="1" vertex="1">
            <mxGeometry x="1094.75" y="699" width="147.96" height="54" as="geometry" />
          </mxCell>
        </UserObject>
        <mxCell id="QabODWYc-xTbxn0SH4q3-156" value="&lt;span style=&quot;font-variant-caps: normal; letter-spacing: normal; text-indent: 0px; text-transform: none; white-space: normal; word-spacing: 0px; -webkit-text-stroke-width: 0px; text-decoration: none; caret-color: rgb(0, 0, 0); float: none; color: rgb(255, 51, 51); display: inline !important;&quot;&gt;&lt;i&gt;&lt;font face=&quot;Times New Roman&quot;&gt;Smooth Navigation Vessel 0#&lt;/font&gt;&lt;/i&gt;&lt;/span&gt;" style="text;whiteSpace=wrap;html=1;fontSize=28;align=center;" parent="1" vertex="1">
          <mxGeometry x="1275.71" y="564" width="218.45" height="72" as="geometry" />
        </mxCell>
        <mxCell id="QabODWYc-xTbxn0SH4q3-157" value="" style="endArrow=classic;html=1;rounded=0;edgeStyle=orthogonalEdgeStyle;curved=1;targetPerimeterSpacing=14;endSize=4;endFill=1;strokeWidth=2;" parent="1" edge="1">
          <mxGeometry width="50" height="50" relative="1" as="geometry">
            <mxPoint x="686" y="888" as="sourcePoint" />
            <mxPoint x="677" y="933" as="targetPoint" />
            <Array as="points">
              <mxPoint x="686" y="906" />
              <mxPoint x="677" y="906" />
            </Array>
          </mxGeometry>
        </mxCell>
        <mxCell id="QabODWYc-xTbxn0SH4q3-158" value="" style="group;rotation=-99;" parent="1" vertex="1" connectable="0">
          <mxGeometry x="1091.0045083733207" y="978.0043534254601" width="160.70643446337112" height="170.2856465745399" as="geometry" />
        </mxCell>
        <mxCell id="QabODWYc-xTbxn0SH4q3-159" style="vsdxID=272;rotation=-398;fillColor=#eeeeee;shape=stencil(lZPRcoMgEEW/hkeZZdERntPkP5gElamVDJrG/H2xUBQzk2ne2OWwFy67hB/GTl01QRgnZz/13VymjvAPgmiGTjsz+RXhR8IPjXW6dfY2XEJ8VQu5rL7s91JhDueAAi6HEB4hwQB+41OgzzcXcJZ4FvmYkZIyGVIzRigSMZSCchEJnhMxlDWt6peyuWYpqRS5JvPXYLkuA4os1y1LWuXSQKXcKit39rtuTlXrcDFw0SCskmURqqpUdFcT5kLNZiycndRk7JA9pleu1YXXK5petdnWeNf6ukmzV94IoELm/mxfjvm/Jne2HvI9899/WU+w57/G1CB/djzwuWf4SolcfdeKvRneaNz3aL9YJ6QxfR8GbLu/nyifCtPIjz8=);strokeColor=none;strokeWidth=0;spacingTop=-3;spacingBottom=-3;spacingLeft=-3;spacingRight=-3;points=[];labelBackgroundColor=none;rounded=0;html=1;whiteSpace=wrap;container=0;" parent="QabODWYc-xTbxn0SH4q3-158" vertex="1">
          <mxGeometry x="35" y="11" width="57.5" height="46" as="geometry" />
        </mxCell>
        <mxCell id="QabODWYc-xTbxn0SH4q3-160" value="" style="shape=image;verticalLabelPosition=bottom;labelBackgroundColor=default;verticalAlign=top;aspect=fixed;imageAspect=0;editableCssRules=.*;image=data:image/svg+xml,PHN2ZyB4bWxucz0iaHR0cDovL3d3dy53My5vcmcvMjAwMC9zdmciIHZlcnNpb249IjEuMSIgdmlld0JveD0iMCAwIDEwMjQgMTAyNCIgaGVpZ2h0PSIyMDAiIHdpZHRoPSIyMDAiIGNsYXNzPSJpY29uIj48cGF0aCBmaWxsPSIjOThBMUI1IiBkPSJNMCAwaDE3MC42NjY2Njd2MTcwLjY2NjY2N0gwVjB6IG00MjYuNjY2NjY3IDBoMTcwLjY2NjY2NnYxNzAuNjY2NjY3SDQyNi42NjY2NjdWMHogbTQyNi42NjY2NjYgMGgxNzAuNjY2NjY3djE3MC42NjY2NjdoLTE3MC42NjY2NjdWMHpNMCA0MjYuNjY2NjY3aDE3MC42NjY2Njd2MTcwLjY2NjY2NkgwVjQyNi42NjY2Njd6IG00MjYuNjY2NjY3IDBoMTcwLjY2NjY2NnYxNzAuNjY2NjY2SDQyNi42NjY2NjdWNDI2LjY2NjY2N3ogbTQyNi42NjY2NjYgMGgxNzAuNjY2NjY3djE3MC42NjY2NjZoLTE3MC42NjY2NjdWNDI2LjY2NjY2N3pNMCA4NTMuMzMzMzMzaDE3MC42NjY2Njd2MTcwLjY2NjY2N0gwdi0xNzAuNjY2NjY3eiBtNDI2LjY2NjY2NyAwaDE3MC42NjY2NjZ2MTcwLjY2NjY2N0g0MjYuNjY2NjY3di0xNzAuNjY2NjY3eiBtNDI2LjY2NjY2NiAwaDE3MC42NjY2Njd2MTcwLjY2NjY2N2gtMTcwLjY2NjY2N3YtMTcwLjY2NjY2N3oiLz48L3N2Zz4=;rotation=-39;container=0;" parent="QabODWYc-xTbxn0SH4q3-158" vertex="1">
          <mxGeometry x="58" y="8" width="25.29" height="25.29" as="geometry" />
        </mxCell>
        <mxCell id="QabODWYc-xTbxn0SH4q3-161" value="" style="shape=image;verticalLabelPosition=bottom;labelBackgroundColor=default;verticalAlign=top;aspect=fixed;imageAspect=0;editableCssRules=.*;image=data:image/svg+xml,PHN2ZyB4bWxucz0iaHR0cDovL3d3dy53My5vcmcvMjAwMC9zdmciIHZlcnNpb249IjEuMSIgdmlld0JveD0iMCAwIDEwMjQgMTAyNCIgaGVpZ2h0PSIyMDAiIHdpZHRoPSIyMDAiIGNsYXNzPSJpY29uIj48cGF0aCBmaWxsPSIjOThBMUI1IiBkPSJNMCAwaDE3MC42NjY2Njd2MTcwLjY2NjY2N0gwVjB6IG00MjYuNjY2NjY3IDBoMTcwLjY2NjY2NnYxNzAuNjY2NjY3SDQyNi42NjY2NjdWMHogbTQyNi42NjY2NjYgMGgxNzAuNjY2NjY3djE3MC42NjY2NjdoLTE3MC42NjY2NjdWMHpNMCA0MjYuNjY2NjY3aDE3MC42NjY2Njd2MTcwLjY2NjY2NkgwVjQyNi42NjY2Njd6IG00MjYuNjY2NjY3IDBoMTcwLjY2NjY2NnYxNzAuNjY2NjY2SDQyNi42NjY2NjdWNDI2LjY2NjY2N3ogbTQyNi42NjY2NjYgMGgxNzAuNjY2NjY3djE3MC42NjY2NjZoLTE3MC42NjY2NjdWNDI2LjY2NjY2N3pNMCA4NTMuMzMzMzMzaDE3MC42NjY2Njd2MTcwLjY2NjY2N0gwdi0xNzAuNjY2NjY3eiBtNDI2LjY2NjY2NyAwaDE3MC42NjY2NjZ2MTcwLjY2NjY2N0g0MjYuNjY2NjY3di0xNzAuNjY2NjY3eiBtNDI2LjY2NjY2NiAwaDE3MC42NjY2Njd2MTcwLjY2NjY2N2gtMTcwLjY2NjY2N3YtMTcwLjY2NjY2N3oiLz48L3N2Zz4=;rotation=-39;container=0;" parent="QabODWYc-xTbxn0SH4q3-158" vertex="1">
          <mxGeometry x="35" y="28" width="25.29" height="25.29" as="geometry" />
        </mxCell>
        <mxCell id="QabODWYc-xTbxn0SH4q3-162" style="vsdxID=273;rotation=-398;fillColor=#eeeeee;shape=stencil(nZBRDoQgDERP03+WHsHFe5iISyOCQdT19kIaIxq//Jtp3zTpAFaTaUYNUkwx+F6v1EYD+AUpyRkdKCYFqACrzgf9C352LfuxyWRWg1/yhT/nRE5IsZWuZtCSK8CPeI0e/hF+jV7AJM4PO7KWCyr390bSiNtEtQM=);strokeWidth=0;spacingTop=-3;spacingBottom=-3;spacingLeft=-3;spacingRight=-3;points=[];labelBackgroundColor=none;rounded=0;html=1;whiteSpace=wrap;strokeColor=none;fixDash=0;container=0;dropTarget=0;collapsible=0;part=0;metaEdit=0;backgroundOutline=0;autosize=0;fixedWidth=0;resizeWidth=0;resizeHeight=0;treeFolding=0;treeMoving=0;enumerate=0;" parent="QabODWYc-xTbxn0SH4q3-158" vertex="1">
          <mxGeometry x="72" y="44" width="58" height="78" as="geometry" />
        </mxCell>
        <mxCell id="QabODWYc-xTbxn0SH4q3-163" value="" style="shape=dataStorage;whiteSpace=wrap;html=1;fixedSize=1;rotation=7;size=13.39482074393743;strokeColor=none;container=0;" parent="QabODWYc-xTbxn0SH4q3-158" vertex="1">
          <mxGeometry x="22" y="6" width="35.21" height="58.38" as="geometry" />
        </mxCell>
        <mxCell id="QabODWYc-xTbxn0SH4q3-164" value="" style="shape=dataStorage;whiteSpace=wrap;html=1;fixedSize=1;rotation=-254;size=10.19517723437616;strokeColor=none;container=0;" parent="QabODWYc-xTbxn0SH4q3-158" vertex="1">
          <mxGeometry x="61" y="-19" width="36.84" height="52" as="geometry" />
        </mxCell>
        <mxCell id="QabODWYc-xTbxn0SH4q3-165" value="" style="shape=image;verticalLabelPosition=bottom;labelBackgroundColor=default;verticalAlign=top;aspect=fixed;imageAspect=0;editableCssRules=.*;image=data:image/svg+xml,PHN2ZyB4bWxucz0iaHR0cDovL3d3dy53My5vcmcvMjAwMC9zdmciIHZlcnNpb249IjEuMSIgdmlld0JveD0iMCAwIDEwMjQgMTAyNCIgaGVpZ2h0PSIyMDAiIHdpZHRoPSIyMDAiIGNsYXNzPSJpY29uIj48cGF0aCBmaWxsPSIjOThBMUI1IiBkPSJNMCAwaDE3MC42NjY2Njd2MTcwLjY2NjY2N0gwVjB6IG00MjYuNjY2NjY3IDBoMTcwLjY2NjY2NnYxNzAuNjY2NjY3SDQyNi42NjY2NjdWMHogbTQyNi42NjY2NjYgMGgxNzAuNjY2NjY3djE3MC42NjY2NjdoLTE3MC42NjY2NjdWMHpNMCA0MjYuNjY2NjY3aDE3MC42NjY2Njd2MTcwLjY2NjY2NkgwVjQyNi42NjY2Njd6IG00MjYuNjY2NjY3IDBoMTcwLjY2NjY2NnYxNzAuNjY2NjY2SDQyNi42NjY2NjdWNDI2LjY2NjY2N3ogbTQyNi42NjY2NjYgMGgxNzAuNjY2NjY3djE3MC42NjY2NjZoLTE3MC42NjY2NjdWNDI2LjY2NjY2N3pNMCA4NTMuMzMzMzMzaDE3MC42NjY2Njd2MTcwLjY2NjY2N0gwdi0xNzAuNjY2NjY3eiBtNDI2LjY2NjY2NyAwaDE3MC42NjY2NjZ2MTcwLjY2NjY2N0g0MjYuNjY2NjY3di0xNzAuNjY2NjY3eiBtNDI2LjY2NjY2NiAwaDE3MC42NjY2Njd2MTcwLjY2NjY2N2gtMTcwLjY2NjY2N3YtMTcwLjY2NjY2N3oiLz48L3N2Zz4=;rotation=-39;container=0;" parent="QabODWYc-xTbxn0SH4q3-158" vertex="1">
          <mxGeometry x="93" y="99" width="25.29" height="25.29" as="geometry" />
        </mxCell>
        <mxCell id="QabODWYc-xTbxn0SH4q3-166" value="" style="shape=image;verticalLabelPosition=bottom;labelBackgroundColor=default;verticalAlign=top;aspect=fixed;imageAspect=0;editableCssRules=.*;image=data:image/svg+xml,PHN2ZyB4bWxucz0iaHR0cDovL3d3dy53My5vcmcvMjAwMC9zdmciIHZlcnNpb249IjEuMSIgdmlld0JveD0iMCAwIDEwMjQgMTAyNCIgaGVpZ2h0PSIyMDAiIHdpZHRoPSIyMDAiIGNsYXNzPSJpY29uIj48cGF0aCBmaWxsPSIjOThBMUI1IiBkPSJNMCAwaDE3MC42NjY2Njd2MTcwLjY2NjY2N0gwVjB6IG00MjYuNjY2NjY3IDBoMTcwLjY2NjY2NnYxNzAuNjY2NjY3SDQyNi42NjY2NjdWMHogbTQyNi42NjY2NjYgMGgxNzAuNjY2NjY3djE3MC42NjY2NjdoLTE3MC42NjY2NjdWMHpNMCA0MjYuNjY2NjY3aDE3MC42NjY2Njd2MTcwLjY2NjY2NkgwVjQyNi42NjY2Njd6IG00MjYuNjY2NjY3IDBoMTcwLjY2NjY2NnYxNzAuNjY2NjY2SDQyNi42NjY2NjdWNDI2LjY2NjY2N3ogbTQyNi42NjY2NjYgMGgxNzAuNjY2NjY3djE3MC42NjY2NjZoLTE3MC42NjY2NjdWNDI2LjY2NjY2N3pNMCA4NTMuMzMzMzMzaDE3MC42NjY2Njd2MTcwLjY2NjY2N0gwdi0xNzAuNjY2NjY3eiBtNDI2LjY2NjY2NyAwaDE3MC42NjY2NjZ2MTcwLjY2NjY2N0g0MjYuNjY2NjY3di0xNzAuNjY2NjY3eiBtNDI2LjY2NjY2NiAwaDE3MC42NjY2Njd2MTcwLjY2NjY2N2gtMTcwLjY2NjY2N3YtMTcwLjY2NjY2N3oiLz48L3N2Zz4=;rotation=-39;container=0;" parent="QabODWYc-xTbxn0SH4q3-158" vertex="1">
          <mxGeometry x="117" y="82" width="25.29" height="25.29" as="geometry" />
        </mxCell>
        <mxCell id="QabODWYc-xTbxn0SH4q3-167" value="" style="shape=image;verticalLabelPosition=bottom;labelBackgroundColor=default;verticalAlign=top;aspect=fixed;imageAspect=0;editableCssRules=.*;image=data:image/svg+xml,PHN2ZyB4bWxucz0iaHR0cDovL3d3dy53My5vcmcvMjAwMC9zdmciIHZlcnNpb249IjEuMSIgdmlld0JveD0iMCAwIDEwMjQgMTAyNCIgaGVpZ2h0PSIyMDAiIHdpZHRoPSIyMDAiIGNsYXNzPSJpY29uIj48cGF0aCBmaWxsPSIjOThBMUI1IiBkPSJNMCAwaDE3MC42NjY2Njd2MTcwLjY2NjY2N0gwVjB6IG00MjYuNjY2NjY3IDBoMTcwLjY2NjY2NnYxNzAuNjY2NjY3SDQyNi42NjY2NjdWMHogbTQyNi42NjY2NjYgMGgxNzAuNjY2NjY3djE3MC42NjY2NjdoLTE3MC42NjY2NjdWMHpNMCA0MjYuNjY2NjY3aDE3MC42NjY2Njd2MTcwLjY2NjY2NkgwVjQyNi42NjY2Njd6IG00MjYuNjY2NjY3IDBoMTcwLjY2NjY2NnYxNzAuNjY2NjY2SDQyNi42NjY2NjdWNDI2LjY2NjY2N3ogbTQyNi42NjY2NjYgMGgxNzAuNjY2NjY3djE3MC42NjY2NjZoLTE3MC42NjY2NjdWNDI2LjY2NjY2N3pNMCA4NTMuMzMzMzMzaDE3MC42NjY2Njd2MTcwLjY2NjY2N0gwdi0xNzAuNjY2NjY3eiBtNDI2LjY2NjY2NyAwaDE3MC42NjY2NjZ2MTcwLjY2NjY2N0g0MjYuNjY2NjY3di0xNzAuNjY2NjY3eiBtNDI2LjY2NjY2NiAwaDE3MC42NjY2Njd2MTcwLjY2NjY2N2gtMTcwLjY2NjY2N3YtMTcwLjY2NjY2N3oiLz48L3N2Zz4=;rotation=-39;container=0;" parent="QabODWYc-xTbxn0SH4q3-158" vertex="1">
          <mxGeometry x="97" y="54" width="25.29" height="25.29" as="geometry" />
        </mxCell>
        <mxCell id="QabODWYc-xTbxn0SH4q3-168" value="" style="shape=image;verticalLabelPosition=bottom;labelBackgroundColor=default;verticalAlign=top;aspect=fixed;imageAspect=0;editableCssRules=.*;image=data:image/svg+xml,PHN2ZyB4bWxucz0iaHR0cDovL3d3dy53My5vcmcvMjAwMC9zdmciIHZlcnNpb249IjEuMSIgdmlld0JveD0iMCAwIDEwMjQgMTAyNCIgaGVpZ2h0PSIyMDAiIHdpZHRoPSIyMDAiIGNsYXNzPSJpY29uIj48cGF0aCBmaWxsPSIjOThBMUI1IiBkPSJNMCAwaDE3MC42NjY2Njd2MTcwLjY2NjY2N0gwVjB6IG00MjYuNjY2NjY3IDBoMTcwLjY2NjY2NnYxNzAuNjY2NjY3SDQyNi42NjY2NjdWMHogbTQyNi42NjY2NjYgMGgxNzAuNjY2NjY3djE3MC42NjY2NjdoLTE3MC42NjY2NjdWMHpNMCA0MjYuNjY2NjY3aDE3MC42NjY2Njd2MTcwLjY2NjY2NkgwVjQyNi42NjY2Njd6IG00MjYuNjY2NjY3IDBoMTcwLjY2NjY2NnYxNzAuNjY2NjY2SDQyNi42NjY2NjdWNDI2LjY2NjY2N3ogbTQyNi42NjY2NjYgMGgxNzAuNjY2NjY3djE3MC42NjY2NjZoLTE3MC42NjY2NjdWNDI2LjY2NjY2N3pNMCA4NTMuMzMzMzMzaDE3MC42NjY2Njd2MTcwLjY2NjY2N0gwdi0xNzAuNjY2NjY3eiBtNDI2LjY2NjY2NyAwaDE3MC42NjY2NjZ2MTcwLjY2NjY2N0g0MjYuNjY2NjY3di0xNzAuNjY2NjY3eiBtNDI2LjY2NjY2NiAwaDE3MC42NjY2Njd2MTcwLjY2NjY2N2gtMTcwLjY2NjY2N3YtMTcwLjY2NjY2N3oiLz48L3N2Zz4=;rotation=-39;container=0;" parent="QabODWYc-xTbxn0SH4q3-158" vertex="1">
          <mxGeometry x="73" y="75" width="25.29" height="25.29" as="geometry" />
        </mxCell>
        <mxCell id="QabODWYc-xTbxn0SH4q3-169" value="" style="shape=image;verticalLabelPosition=bottom;labelBackgroundColor=default;verticalAlign=top;aspect=fixed;imageAspect=0;editableCssRules=.*;image=data:image/svg+xml,PHN2ZyB4bWxucz0iaHR0cDovL3d3dy53My5vcmcvMjAwMC9zdmciIHZlcnNpb249IjEuMSIgdmlld0JveD0iMCAwIDEwMjQgMTAyNCIgaGVpZ2h0PSIyMDAiIHdpZHRoPSIyMDAiIGNsYXNzPSJpY29uIj48cGF0aCBmaWxsPSIjOThBMUI1IiBkPSJNMCAwaDE3MC42NjY2Njd2MTcwLjY2NjY2N0gwVjB6IG00MjYuNjY2NjY3IDBoMTcwLjY2NjY2NnYxNzAuNjY2NjY3SDQyNi42NjY2NjdWMHogbTQyNi42NjY2NjYgMGgxNzAuNjY2NjY3djE3MC42NjY2NjdoLTE3MC42NjY2NjdWMHpNMCA0MjYuNjY2NjY3aDE3MC42NjY2Njd2MTcwLjY2NjY2NkgwVjQyNi42NjY2Njd6IG00MjYuNjY2NjY3IDBoMTcwLjY2NjY2NnYxNzAuNjY2NjY2SDQyNi42NjY2NjdWNDI2LjY2NjY2N3ogbTQyNi42NjY2NjYgMGgxNzAuNjY2NjY3djE3MC42NjY2NjZoLTE3MC42NjY2NjdWNDI2LjY2NjY2N3pNMCA4NTMuMzMzMzMzaDE3MC42NjY2Njd2MTcwLjY2NjY2N0gwdi0xNzAuNjY2NjY3eiBtNDI2LjY2NjY2NyAwaDE3MC42NjY2NjZ2MTcwLjY2NjY2N0g0MjYuNjY2NjY3di0xNzAuNjY2NjY3eiBtNDI2LjY2NjY2NiAwaDE3MC42NjY2Njd2MTcwLjY2NjY2N2gtMTcwLjY2NjY2N3YtMTcwLjY2NjY2N3oiLz48L3N2Zz4=;rotation=-39;container=0;" parent="QabODWYc-xTbxn0SH4q3-158" vertex="1">
          <mxGeometry x="55" y="52" width="25.29" height="25.29" as="geometry" />
        </mxCell>
        <mxCell id="QabODWYc-xTbxn0SH4q3-170" value="" style="shape=image;verticalLabelPosition=bottom;labelBackgroundColor=default;verticalAlign=top;aspect=fixed;imageAspect=0;editableCssRules=.*;image=data:image/svg+xml,PHN2ZyB4bWxucz0iaHR0cDovL3d3dy53My5vcmcvMjAwMC9zdmciIHZlcnNpb249IjEuMSIgdmlld0JveD0iMCAwIDEwMjQgMTAyNCIgaGVpZ2h0PSIyMDAiIHdpZHRoPSIyMDAiIGNsYXNzPSJpY29uIj48cGF0aCBmaWxsPSIjOThBMUI1IiBkPSJNMCAwaDE3MC42NjY2Njd2MTcwLjY2NjY2N0gwVjB6IG00MjYuNjY2NjY3IDBoMTcwLjY2NjY2NnYxNzAuNjY2NjY3SDQyNi42NjY2NjdWMHogbTQyNi42NjY2NjYgMGgxNzAuNjY2NjY3djE3MC42NjY2NjdoLTE3MC42NjY2NjdWMHpNMCA0MjYuNjY2NjY3aDE3MC42NjY2Njd2MTcwLjY2NjY2NkgwVjQyNi42NjY2Njd6IG00MjYuNjY2NjY3IDBoMTcwLjY2NjY2NnYxNzAuNjY2NjY2SDQyNi42NjY2NjdWNDI2LjY2NjY2N3ogbTQyNi42NjY2NjYgMGgxNzAuNjY2NjY3djE3MC42NjY2NjZoLTE3MC42NjY2NjdWNDI2LjY2NjY2N3pNMCA4NTMuMzMzMzMzaDE3MC42NjY2Njd2MTcwLjY2NjY2N0gwdi0xNzAuNjY2NjY3eiBtNDI2LjY2NjY2NyAwaDE3MC42NjY2NjZ2MTcwLjY2NjY2N0g0MjYuNjY2NjY3di0xNzAuNjY2NjY3eiBtNDI2LjY2NjY2NiAwaDE3MC42NjY2Njd2MTcwLjY2NjY2N2gtMTcwLjY2NjY2N3YtMTcwLjY2NjY2N3oiLz48L3N2Zz4=;rotation=-39;container=0;" parent="QabODWYc-xTbxn0SH4q3-158" vertex="1">
          <mxGeometry x="78" y="31" width="25.29" height="25.29" as="geometry" />
        </mxCell>
        <mxCell id="QabODWYc-xTbxn0SH4q3-171" style="vsdxID=324;rotation=-39;fillColor=#647687;shape=stencil(tZTbUsMgEIafhsswHJPmWut7MC1tGWPSIamNby+RhWSjrTqjd7B8sP8eWCIf+pM5WyJYP/ju2V7dfjgR+UiEcO3JejeEFZFbIh8OnbdH313afdyfzUROq5fudXphjPdqTXU13RLsLVrYx+4pwruLjzTP+KYEHEyMljxaRgFQSbkGCEyccvAyygwpBZBMUFktnRu/C6celGrKgfegNJhUehUerWmNgglIJQEpzOj6wneDGVzXLoNljfFHWwR/xaExR3TUX609L8z8Xno4Yzg5SlEtcXZmBgxlTdkqOTMj18xPPW/KnK9cl4rqzaou6VouSxBcY9+JAc+Naxf9E0rAUcZX9FqnoEpiobMEgRKfJC4DkZi4lRwskZGvO+JGl4nPXVZr1GUy1zTFTEX6Av/QZFggD79EYoV6ritAKgtCn/qv5N3ph2/mya/gsJjH1sE1TZx6y/P1mAumOCLl9h0=);strokeColor=#314354;strokeWidth=0;spacingTop=-3;spacingBottom=-3;spacingLeft=-3;spacingRight=-3;points=[];labelBackgroundColor=none;rounded=0;html=1;whiteSpace=wrap;container=0;fontColor=#ffffff;" parent="QabODWYc-xTbxn0SH4q3-158" vertex="1">
          <mxGeometry x="87" y="63" width="21" height="30" as="geometry" />
        </mxCell>
        <mxCell id="QabODWYc-xTbxn0SH4q3-172" style="vsdxID=276;rotation=-398;fillColor=#647687;shape=stencil(vVFBDgIhDHwNRxKE+IJ1/Ufjll0iLpuCLv5eSDWKevLgbaYznTatMF2cYEGhVUwUjri6IU3C7ITWbp6QXCpImF6YzgbCkcJ5HpgvUJ0VncKlJmTuU7VDqyuzLdM9O4EORaLcaIpa7yNoo75GqSwhuygpJEguzM1UDzSiLGOk9TDec1iKK+LyUf5lsf+tVcDzzNZ5z1961d/fUkr8UtPfAA==);strokeColor=#314354;points=[[0.5,0,0],[0.5,0.5,0],[0.5,0.5,0],[0.5,0.5,0],[1,0.5,0]];labelBackgroundColor=none;rounded=0;html=1;whiteSpace=wrap;fontColor=#ffffff;container=0;" parent="QabODWYc-xTbxn0SH4q3-158" vertex="1">
          <mxGeometry x="130" y="106" width="19" height="8" as="geometry" />
        </mxCell>
        <mxCell id="QabODWYc-xTbxn0SH4q3-173" style="vsdxID=277;rotation=-398;fillColor=#647687;shape=stencil(vVFBDgIhDHwNRxKE+IJ1/Ufjll0iLpuCLv5eSDWKevLgbaYznTatMF2cYEGhVUwUjri6IU3C7ITWbp6QXCpImF6YzgbCkcJ5HpgvUJ0VncKlJmTuU7VDqyuzLdM9O4EORaLcaIpa7yNoo75GqSwhuygpJEguzM1UDzSiLGOk9TDec1iKK+LyUf5lsf+tVcDzzNZ5z1961d/fUkr8UtPfAA==);strokeColor=#314354;points=[[0.5,0,0],[0.5,0.5,0],[0.5,0.5,0],[0.5,0.5,0],[1,0.5,0]];labelBackgroundColor=none;rounded=0;html=1;whiteSpace=wrap;fontColor=#ffffff;container=0;" parent="QabODWYc-xTbxn0SH4q3-158" vertex="1">
          <mxGeometry x="109" y="124" width="19" height="8" as="geometry" />
        </mxCell>
        <mxCell id="QabODWYc-xTbxn0SH4q3-174" style="vsdxID=278;rotation=-398;fillColor=#647687;shape=stencil(vVHLDsIgEPwajiQU4hfU+h8bu7RELM2CFv9eyMZYjCcP3mZ2Zh/ZEaaPM6wotIqJwgU3N6ZZmKPQ2i0zkksFCTMI09tAOFG4LSPzFaqzomu41wmZ+1Tt0OrB7MD0xE6gc5EoN5qi1vsa1Kmvo1SWkF2UFBIkF5ZmqweaUJY10nqYGiluiOuu3P182P/OKuD9Zuu855T2+mcspcSRmuEJ);strokeColor=#314354;points=[[0.5,0,0],[0.5,0.5,0],[0.5,0.5,0],[0.5,0.5,0],[1,0.5,0],[0.15,0.85,0],[0.85,0.85,0],[0.85,0.15,0],[0.15,0.15,0]];labelBackgroundColor=none;rounded=0;html=1;whiteSpace=wrap;fontColor=#ffffff;container=0;" parent="QabODWYc-xTbxn0SH4q3-158" vertex="1">
          <mxGeometry x="124" y="113" width="10" height="10" as="geometry" />
        </mxCell>
        <mxCell id="QabODWYc-xTbxn0SH4q3-175" value="&lt;i style=&quot;caret-color: rgb(0, 0, 0); font-family: &amp;quot;Times New Roman&amp;quot;; font-size: 25px; font-variant-caps: normal; font-weight: 400; letter-spacing: normal; text-align: center; text-indent: 0px; text-transform: none; white-space: normal; word-spacing: 0px; -webkit-text-stroke-width: 0px; text-decoration: none; color: light-dark(rgb(145, 145, 145), rgb(237, 237, 237));&quot;&gt;Phantom Guiding Vessel 3#&lt;/i&gt;" style="text;whiteSpace=wrap;html=1;" parent="QabODWYc-xTbxn0SH4q3-158" vertex="1">
          <mxGeometry x="-95.71450837332077" y="107.2856465745399" width="188.21" height="63" as="geometry" />
        </mxCell>
        <mxCell id="QabODWYc-xTbxn0SH4q3-176" value="&lt;i style=&quot;caret-color: rgb(0, 0, 0); font-family: &amp;quot;Times New Roman&amp;quot;; font-size: 25px; font-variant-caps: normal; font-weight: 400; letter-spacing: normal; text-align: center; text-indent: 0px; text-transform: none; white-space: normal; word-spacing: 0px; -webkit-text-stroke-width: 0px; text-decoration: none; color: light-dark(rgb(145, 145, 145), rgb(237, 237, 237));&quot;&gt;Phantom Guiding Vessel 2#&lt;/i&gt;" style="text;whiteSpace=wrap;html=1;" parent="1" vertex="1">
          <mxGeometry x="742.11" y="942" width="186.89" height="63" as="geometry" />
        </mxCell>
        <mxCell id="QabODWYc-xTbxn0SH4q3-177" value="" style="curved=1;endArrow=none;html=1;rounded=0;exitX=0.934;exitY=0.966;exitDx=0;exitDy=0;dashed=1;strokeColor=light-dark(#919191, #ff80ee);strokeWidth=6;exitPerimeter=0;startFill=0;" parent="1" source="QabODWYc-xTbxn0SH4q3-24" target="QabODWYc-xTbxn0SH4q3-70" edge="1">
          <mxGeometry width="50" height="50" relative="1" as="geometry">
            <mxPoint x="809.312185984586" y="570.0943223436193" as="sourcePoint" />
            <mxPoint x="1108.709750006377" y="536.998689189993" as="targetPoint" />
            <Array as="points">
              <mxPoint x="892.6099999999999" y="621.02" />
              <mxPoint x="946.6099999999999" y="612.02" />
            </Array>
          </mxGeometry>
        </mxCell>
        <mxCell id="QabODWYc-xTbxn0SH4q3-178" value="" style="curved=1;endArrow=none;html=1;rounded=0;dashed=1;strokeColor=light-dark(#919191, #ff80ee);strokeWidth=6;entryX=0.033;entryY=0.567;entryDx=0;entryDy=0;entryPerimeter=0;startFill=0;" parent="1" target="QabODWYc-xTbxn0SH4q3-110" edge="1">
          <mxGeometry width="50" height="50" relative="1" as="geometry">
            <mxPoint x="1136.58" y="997.9499999999998" as="sourcePoint" />
            <mxPoint x="1194.2941865145158" y="762.001014584187" as="targetPoint" />
            <Array as="points">
              <mxPoint x="1064" y="924" />
              <mxPoint x="1118" y="843" />
            </Array>
          </mxGeometry>
        </mxCell>
        <mxCell id="RE1vsZJk9F45qvtvVj4A-2" value="&lt;font style=&quot;font-size: 35px;&quot;&gt;\(X_{E}\)&lt;/font&gt;" style="text;html=1;align=center;verticalAlign=middle;whiteSpace=wrap;rounded=0;fontSize=22;fontStyle=1" vertex="1" parent="1">
          <mxGeometry x="250" y="1290" width="50" height="40" as="geometry" />
        </mxCell>
        <mxCell id="RE1vsZJk9F45qvtvVj4A-3" value="&lt;font style=&quot;font-size: 35px;&quot;&gt;\(O_{E}\)&lt;/font&gt;" style="text;html=1;align=center;verticalAlign=middle;whiteSpace=wrap;rounded=0;fontSize=22;fontStyle=1" vertex="1" parent="1">
          <mxGeometry x="270" y="2120" width="50" height="40" as="geometry" />
        </mxCell>
        <mxCell id="RE1vsZJk9F45qvtvVj4A-4" value="&lt;font style=&quot;font-size: 35px;&quot;&gt;\(Y_{E}\)&lt;/font&gt;" style="text;html=1;align=center;verticalAlign=middle;whiteSpace=wrap;rounded=0;fontSize=22;fontStyle=1" vertex="1" parent="1">
          <mxGeometry x="1257.71" y="2147" width="50" height="40" as="geometry" />
        </mxCell>
        <mxCell id="RE1vsZJk9F45qvtvVj4A-5" value="" style="endArrow=none;html=1;rounded=0;entryX=0.311;entryY=0.037;entryDx=0;entryDy=0;entryPerimeter=0;strokeWidth=5;strokeColor=light-dark(#0061ff, #ededed);" edge="1" parent="1">
          <mxGeometry width="50" height="50" relative="1" as="geometry">
            <mxPoint x="700" y="1950" as="sourcePoint" />
            <mxPoint x="1301.2600000000002" y="1761.0010000000002" as="targetPoint" />
          </mxGeometry>
        </mxCell>
        <mxCell id="RE1vsZJk9F45qvtvVj4A-7" value="" style="endArrow=none;html=1;rounded=0;strokeWidth=5;strokeColor=light-dark(#0061ff, #ededed);entryX=0.038;entryY=0.305;entryDx=0;entryDy=0;entryPerimeter=0;" edge="1" parent="1" target="RE1vsZJk9F45qvtvVj4A-15">
          <mxGeometry width="50" height="50" relative="1" as="geometry">
            <mxPoint x="700" y="1360" as="sourcePoint" />
            <mxPoint x="1303.25" y="1598.5369999999998" as="targetPoint" />
          </mxGeometry>
        </mxCell>
        <mxCell id="RE1vsZJk9F45qvtvVj4A-11" value="" style="endArrow=none;html=1;rounded=0;strokeWidth=5;strokeColor=light-dark(#0061ff, #ededed);entryX=0.077;entryY=0.232;entryDx=0;entryDy=0;entryPerimeter=0;" edge="1" parent="1" target="RE1vsZJk9F45qvtvVj4A-16">
          <mxGeometry width="50" height="50" relative="1" as="geometry">
            <mxPoint x="700" y="1420" as="sourcePoint" />
            <mxPoint x="1267.72108" y="1649.1166500000002" as="targetPoint" />
          </mxGeometry>
        </mxCell>
        <mxCell id="RE1vsZJk9F45qvtvVj4A-15" value="" style="verticalLabelPosition=bottom;verticalAlign=top;html=1;shape=mxgraph.basic.arc;startAngle=0.812340981570262;endAngle=0.194216729210609;rotation=90;strokeWidth=5;fillColor=light-dark(#0061FF,#A8A8FF);strokeColor=#0061FF;" vertex="1" parent="1">
          <mxGeometry x="1175.13" y="1581.37" width="185.26" height="185.63" as="geometry" />
        </mxCell>
        <mxCell id="RE1vsZJk9F45qvtvVj4A-16" value="" style="verticalLabelPosition=bottom;verticalAlign=top;html=1;shape=mxgraph.basic.arc;startAngle=0.8387354243783428;endAngle=0.18465775272094553;rotation=90;strokeWidth=5;fillColor=light-dark(#0061FF,#A8A8FF);strokeColor=#0061FF;" vertex="1" parent="1">
          <mxGeometry x="1203.04" y="1626.53" width="76.78" height="101.56" as="geometry" />
        </mxCell>
        <mxCell id="RE1vsZJk9F45qvtvVj4A-18" value="" style="endArrow=none;html=1;rounded=0;entryX=0.958;entryY=0.302;entryDx=0;entryDy=0;entryPerimeter=0;strokeWidth=5;strokeColor=light-dark(#0061ff, #ededed);" edge="1" parent="1" target="RE1vsZJk9F45qvtvVj4A-16">
          <mxGeometry width="50" height="50" relative="1" as="geometry">
            <mxPoint x="700" y="1890" as="sourcePoint" />
            <mxPoint x="1262.7100000000003" y="1713" as="targetPoint" />
          </mxGeometry>
        </mxCell>
        <mxCell id="RE1vsZJk9F45qvtvVj4A-19" value="" style="endArrow=none;html=1;rounded=0;entryX=0.311;entryY=0.037;entryDx=0;entryDy=0;entryPerimeter=0;strokeWidth=5;strokeColor=light-dark(#0061ff, #ededed);" edge="1" parent="1">
          <mxGeometry width="50" height="50" relative="1" as="geometry">
            <mxPoint x="700" y="2010" as="sourcePoint" />
            <mxPoint x="1326.2600000000002" y="1816" as="targetPoint" />
          </mxGeometry>
        </mxCell>
        <mxCell id="RE1vsZJk9F45qvtvVj4A-20" value="" style="verticalLabelPosition=bottom;verticalAlign=top;html=1;shape=mxgraph.basic.arc;startAngle=0.812340981570262;endAngle=0.2013178656285476;rotation=90;strokeWidth=5;fillColor=light-dark(#0061FF,#A8A8FF);strokeColor=#0061FF;" vertex="1" parent="1">
          <mxGeometry x="1139.39" y="1536.5" width="286.65" height="285.63" as="geometry" />
        </mxCell>
        <mxCell id="RE1vsZJk9F45qvtvVj4A-21" value="" style="endArrow=none;html=1;rounded=0;strokeWidth=5;strokeColor=light-dark(#0061ff, #ededed);entryX=0.279;entryY=0.949;entryDx=0;entryDy=0;entryPerimeter=0;" edge="1" parent="1">
          <mxGeometry width="50" height="50" relative="1" as="geometry">
            <mxPoint x="700" y="1300" as="sourcePoint" />
            <mxPoint x="1337.36" y="1546.4969999999998" as="targetPoint" />
          </mxGeometry>
        </mxCell>
      </root>
    </mxGraphModel>
  </diagram>
</mxfile>
